<?xml version="1.0" encoding="UTF-8"?>
<svg version="1.1" xmlns="http://www.w3.org/2000/svg" width="2263" height="1440">
<path d="M0 0 C5.75569244 1.59880346 10.61449473 4.4080905 15.75 7.375 C16.67232422 7.90593262 17.59464844 8.43686523 18.54492188 8.98388672 C32.36231058 17.02822438 45.59446444 25.90579129 58 36 C58.5347998 36.43183594 59.06959961 36.86367188 59.62060547 37.30859375 C74.04595696 49.0427435 87.71750665 62.19311286 99 77 C99.76957031 77.96421875 100.53914063 78.9284375 101.33203125 79.921875 C148.76379117 139.62177005 167.90316327 212.03640252 159.62109375 287.45019531 C155.66194797 319.99783303 146.32253407 351.5335894 132 381 C131.62149902 381.78294434 131.24299805 382.56588867 130.85302734 383.37255859 C120.24738174 405.04613567 106.37764429 425.01995399 90.046875 442.76953125 C88.15328813 444.83296274 86.32173836 446.93574581 84.5 449.0625 C78.17105871 456.29142836 71.36642352 462.70211631 63.859375 468.6953125 C61.96791612 470.21984903 60.10233727 471.77711945 58.265625 473.3671875 C49.71548769 480.75998578 40.53915731 486.96030627 31 493 C30.30777344 493.43844238 29.61554688 493.87688477 28.90234375 494.32861328 C-0.32504039 512.62388577 -32.97768755 524.62803952 -66.75 531.25 C-67.51602539 531.40122314 -68.28205078 531.55244629 -69.07128906 531.70825195 C-85.01039503 534.64013362 -100.82988223 535.374698 -117 535.3125 C-118.48034729 535.30976578 -118.48034729 535.30976578 -119.99060059 535.30697632 C-135.51911545 535.25880472 -150.66390096 534.62668183 -166 532 C-167.01255859 531.83371094 -168.02511719 531.66742187 -169.06835938 531.49609375 C-209.87115813 524.63207153 -249.29712928 509.07347909 -283 485 C-283.56750977 484.5968457 -284.13501953 484.19369141 -284.71972656 483.77832031 C-301.83393032 471.53002195 -318.43355387 457.11740181 -332 441 C-332.4655127 440.45746582 -332.93102539 439.91493164 -333.41064453 439.35595703 C-373.06040961 393.00304188 -401.65722382 329.13478088 -401.0625 267.375 C-401.05573242 266.01181641 -401.05573242 266.01181641 -401.04882812 264.62109375 C-401.03721178 262.41398911 -401.02088168 260.20703303 -401 258 C-397.87469086 260.40531471 -395.15182697 262.78647062 -392.625 265.8125 C-378.982061 281.7243511 -361.76973303 294.99676517 -344 306 C-342.85217041 306.7115625 -342.85217041 306.7115625 -341.68115234 307.4375 C-286.6498448 341.12073905 -220.41122665 349.74743483 -158 335 C-106.5840994 322.36245342 -57.47580008 289.65719176 -26 247 C-25.16287701 245.89314098 -24.32563808 244.78636963 -23.48828125 243.6796875 C13.0669722 194.65314676 28.72034893 129.50933033 20.03515625 69.1484375 C16.54398451 47.36935024 10.58094206 25.20358657 0.95532227 5.30810547 C0 3 0 3 0 0 Z " fill="#ED1C23" transform="translate(1417,322)"/>
<path d="M0 0 C0.91095428 -0.00067474 1.82190857 -0.00134949 2.76046753 -0.00204468 C17.48603377 0.0152379 31.8442399 0.68960245 46.375 3.25 C47.3453418 3.41628906 48.31568359 3.58257812 49.31542969 3.75390625 C94.58614963 11.74024691 137.32833722 30.69976709 173.375 59.25 C174.26960938 59.95253906 175.16421875 60.65507813 176.0859375 61.37890625 C191.21165165 73.49247962 205.38876116 87.01875572 217.375 102.25 C218.25807744 103.34328646 219.14223606 104.4357003 220.02734375 105.52734375 C267.13659798 163.99173343 287.0599655 239.79000356 279.734375 314.01611328 C273.76081493 367.77003766 251.09549052 419.86989956 216.375 461.25 C215.95847168 461.7553125 215.54194336 462.260625 215.11279297 462.78125 C204.05387347 476.18312743 192.1155623 488.57360237 178.375 499.25 C177.30950585 500.11510765 176.24578882 500.98240736 175.18359375 501.8515625 C168.7893824 507.0422551 162.2206581 511.82465327 155.3125 516.3125 C154.24104736 517.01028564 154.24104736 517.01028564 153.14794922 517.72216797 C149.651551 519.95272902 146.32043749 521.8887087 142.375 523.25 C142.55748291 522.6506665 142.73996582 522.05133301 142.92797852 521.43383789 C162.92829016 455.31832095 160.32343593 388.83999381 127.375 327.25 C126.76140625 326.09371094 126.1478125 324.93742187 125.515625 323.74609375 C111.10611247 297.57675178 90.79430788 273.74057954 67.375 255.25 C66.43398437 254.48042969 65.49296875 253.71085938 64.5234375 252.91796875 C44.1064855 236.58968285 20.80524339 224.32068621 -3.625 215.25 C-4.28177734 215.00266113 -4.93855469 214.75532227 -5.61523438 214.50048828 C-62.79949324 193.21591159 -129.62579958 199.23304726 -184.5559082 224.14379883 C-205.87822083 234.17899722 -224.96000631 246.97442448 -242.1875 263 C-244.24725336 264.90131079 -246.3476261 266.70635509 -248.5 268.5 C-258.38298535 277.15516029 -266.69993324 287.29418183 -274.48706055 297.82763672 C-275.00051025 298.52002441 -275.51395996 299.21241211 -276.04296875 299.92578125 C-276.49438232 300.54364502 -276.9457959 301.16150879 -277.41088867 301.7980957 C-278.625 303.25 -278.625 303.25 -280.625 304.25 C-282.31365176 297.19251856 -281.86959961 289.84175719 -281.875 282.625 C-281.87567474 281.82066528 -281.87634949 281.01633057 -281.87704468 280.18762207 C-281.77349294 202.17348235 -249.01132638 130.32974283 -194.17333984 75.61523438 C-188.92897296 70.45474541 -183.48849635 65.70176536 -177.625 61.25 C-177.07408691 60.82799316 -176.52317383 60.40598633 -175.95556641 59.97119141 C-133.75725479 27.77544254 -83.37300075 7.38741683 -30.625 1.25 C-29.85994141 1.1557373 -29.09488281 1.06147461 -28.30664062 0.96435547 C-18.9008828 -0.05381235 -9.44962344 0.00629783 0 0 Z " fill="#ED1C23" transform="translate(1123.625,-0.25)"/>
<path d="M0 0 C1.83159668 0.37801758 1.83159668 0.37801758 3.70019531 0.76367188 C25.69956661 5.39336546 46.31610745 11.81626798 66.9375 20.6875 C67.92363281 21.11062469 67.92363281 21.11062469 68.9296875 21.54229736 C70.81994351 22.35760075 72.70562932 23.18256067 74.58984375 24.01171875 C75.68159912 24.49084717 76.77335449 24.96997559 77.89819336 25.46362305 C81.15628394 27.07741006 84.08486556 28.82631236 87 31 C87 31.66 87 32.32 87 33 C86.22624023 33.20568604 85.45248047 33.41137207 84.65527344 33.62329102 C46.2738674 43.8782341 10.88476699 57.20129007 -20 83 C-20.87132568 83.71905518 -20.87132568 83.71905518 -21.76025391 84.45263672 C-34.05865507 94.62472582 -45.1609759 105.39975776 -55 118 C-55.77730469 118.96035156 -56.55460937 119.92070312 -57.35546875 120.91015625 C-96.77858923 170.48676721 -113.92312031 234.75149348 -107.23046875 297.51098633 C-99.43364486 357.58829898 -67.20355186 417.72921248 -19 455 C-18.11054687 455.69609375 -18.11054687 455.69609375 -17.203125 456.40625 C-7.86626925 463.69355205 1.63448535 470.26681073 12 476 C12.84449707 476.46937988 13.68899414 476.93875977 14.55908203 477.42236328 C24.72848786 483.02481087 34.96303496 488.27381119 45.8125 492.4375 C46.95452881 492.87751343 46.95452881 492.87751343 48.11962891 493.32641602 C62.89753081 498.74580327 78.17341037 502.0188796 93.625 504.8125 C95.32565715 505.12621503 97.02617881 505.44066551 98.7265625 505.75585938 C102.81620657 506.51233695 106.90751791 507.25903656 111 508 C111 508.66 111 509.32 111 510 C69.23096903 535.17376866 26.48169404 550.73716072 -22 557 C-23.19435669 557.1546875 -23.19435669 557.1546875 -24.4128418 557.3125 C-76.31968502 563.26875766 -130.63452461 550.94803185 -177 528 C-177.73138184 527.6405127 -178.46276367 527.28102539 -179.21630859 526.91064453 C-208.57945474 512.32516903 -237.9907853 490.31067029 -259 465 C-259.86625 464.02160156 -260.7325 463.04320312 -261.625 462.03515625 C-298.93736063 419.83842639 -319.80519086 368.21205884 -328 313 C-328.18546387 311.75259033 -328.37092773 310.50518066 -328.56201172 309.2199707 C-338.68592791 239.85969237 -316.7609728 164.91941134 -275.1875 109.0625 C-264.72244828 95.16555593 -253.35535476 80.83258183 -239.9609375 69.65234375 C-237.73564151 67.77724374 -235.62882788 65.79634126 -233.5 63.8125 C-190.41664358 25.12272787 -135.51203706 5.07439046 -79 -3 C-78.20746826 -3.1141626 -77.41493652 -3.2283252 -76.59838867 -3.34594727 C-51.59918463 -6.37971195 -24.57309481 -5.16027723 0 0 Z " fill="#ED1C23" transform="translate(1003,302)"/>
<path d="M0 0 C0.66 0 1.32 0 2 0 C2.13535156 0.60328125 2.27070312 1.2065625 2.41015625 1.828125 C3.5753983 6.66166802 3.5753983 6.66166802 6.72265625 10.27734375 C7.35042969 10.57769531 7.97820312 10.87804688 8.625 11.1875 C12 13 12 13 12.87109375 15.77734375 C13.02122174 19.53054343 12.22652834 21.11457759 10.4375 24.375 C6.98631434 32.14733778 8.4442481 38.96920143 10 47 C12.09939073 57.98315457 13.19774907 68.42116149 13.0859375 79.6328125 C13.07973389 80.82720947 13.07353027 82.02160645 13.06713867 83.25219727 C13.05109245 86.16823373 13.02858251 89.08406406 13 92 C-0.04783518 92.06954962 -13.09562616 92.12283664 -26.14360905 92.15543652 C-32.20249549 92.17108382 -38.26125498 92.19230533 -44.32006836 92.22631836 C-50.16855045 92.25894469 -56.01691052 92.27686006 -61.86547661 92.28463173 C-64.09537107 92.29016932 -66.32525896 92.30098287 -68.55510139 92.31719017 C-71.68149303 92.33900756 -74.80738222 92.34196507 -77.93383789 92.34057617 C-78.85309555 92.351362 -79.77235321 92.36214783 -80.71946716 92.3732605 C-86.24849194 92.34673004 -90.09734481 91.60810096 -95 89 C-96.8399303 87.10473345 -97.69934962 85.34117068 -99 83 C-99.53625 83.763125 -100.0725 84.52625 -100.625 85.3125 C-104.39439605 89.57786921 -108.49425091 91.09952401 -114 92 C-115.72908238 92.09076187 -117.4610365 92.13463701 -119.19248962 92.14044189 C-120.21721878 92.14615204 -121.24194794 92.15186218 -122.29772949 92.15774536 C-123.41111694 92.15886322 -124.52450439 92.15998108 -125.67163086 92.16113281 C-127.44317284 92.16858017 -127.44317284 92.16858017 -129.25050354 92.17617798 C-132.4819181 92.18825945 -135.71329654 92.19573714 -138.94472957 92.20018864 C-140.96547582 92.20312592 -142.98621649 92.20723186 -145.00695992 92.21169281 C-151.33516409 92.22535272 -157.66335539 92.23502779 -163.99157327 92.2388947 C-171.28653995 92.24337755 -178.58131946 92.26094215 -185.87622923 92.2898953 C-191.52309009 92.3115269 -197.16989833 92.3215997 -202.81680018 92.32293582 C-206.18612127 92.32398242 -209.55526605 92.32985962 -212.92454338 92.34775543 C-216.68283198 92.36479244 -220.44066316 92.36294135 -224.19897461 92.35644531 C-225.31033783 92.3656601 -226.42170105 92.37487488 -227.56674194 92.3843689 C-234.37830968 92.34745128 -239.14341639 91.81099983 -244.203125 86.83203125 C-246.47139522 83.25704014 -247.59912115 79.73729067 -248.75 75.6875 C-248.97042969 74.94693359 -249.19085937 74.20636719 -249.41796875 73.44335938 C-249.95555854 71.63191553 -250.47921445 69.81634633 -251 68 C-251.37511719 68.48210937 -251.75023437 68.96421875 -252.13671875 69.4609375 C-257.53978952 76.12971503 -257.53978952 76.12971503 -262 77 C-268.46971742 76.60389485 -274.74860329 74.63213806 -281 73 C-280.58967612 61.10060747 -275.35296128 49.49275979 -267 41 C-264.9908105 39.31702577 -262.95962397 37.76838279 -260.796875 36.2890625 C-257.26495568 33.75529429 -255.67127408 31.81134698 -254.61328125 27.55078125 C-254.39736328 26.70322266 -254.18144531 25.85566406 -253.95898438 24.98242188 C-253.74564453 24.10134766 -253.53230469 23.22027344 -253.3125 22.3125 C-253.08755859 21.41982422 -252.86261719 20.52714844 -252.63085938 19.60742188 C-252.07783947 17.40710866 -251.53463167 15.20484004 -251 13 C-250.01 13.33 -249.02 13.66 -248 14 C-247.90501221 14.61069336 -247.81002441 15.22138672 -247.7121582 15.85058594 C-246.7021765 22.31686643 -245.66573714 28.77852981 -244.61181641 35.23779297 C-244.19833479 37.78039139 -243.78926904 40.32371126 -243.38427734 42.86767578 C-242.77267207 46.68553177 -242.13880488 50.49911151 -241.5 54.3125 C-241.31091064 55.51551758 -241.12182129 56.71853516 -240.92700195 57.95800781 C-240.63829224 59.64361816 -240.63829224 59.64361816 -240.34375 61.36328125 C-240.18068359 62.35626221 -240.01761719 63.34924316 -239.84960938 64.37231445 C-238.77122829 67.70754883 -237.90714517 69.0077573 -235 71 C-231.98272374 71.41779971 -229.3161328 71.60479843 -226.296875 71.609375 C-225.45908508 71.62591125 -224.62129517 71.64244751 -223.75811768 71.65948486 C-221.08867063 71.70797499 -218.41979326 71.72933745 -215.75 71.75 C-213.93747132 71.77815893 -212.1249692 71.80808625 -210.3125 71.83984375 C-205.87504691 71.91373394 -201.43791023 71.96330214 -197 72 C-197.33773437 71.32453125 -197.67546875 70.6490625 -198.0234375 69.953125 C-199.34895833 67.30208333 -200.67447917 64.65104167 -202 62 C-202.58044067 60.91187012 -202.58044067 60.91187012 -203.17260742 59.80175781 C-205.02955613 55.75800406 -202.55823692 50.63156203 -201.19140625 46.63671875 C-200.48983239 44.74683319 -199.74868835 42.87172088 -199 41 C-193.44688858 45.47333975 -191.97488956 50.15841832 -190 57 C-189.505 63.93 -189.505 63.93 -189 71 C-176.79 70.67 -164.58 70.34 -152 70 C-162.31935132 60.82724327 -167.79515458 57.49363908 -181 57 C-180.40231918 50.72435139 -178.08906282 46.84036487 -173.375 42.6875 C-168.67027854 39.34467159 -164.65315931 39.45642699 -159 40 C-148.55988877 42.44816562 -140.19680499 54.53062784 -133.51171875 62.31640625 C-129.66171609 66.60413531 -125.79746841 69.90613804 -120 71 C-114.66498795 71.13556832 -110.35007961 70.68731326 -105.5625 68.25 C-101.9416361 64.74358869 -101.1314944 59.59867378 -99.95703125 54.86328125 C-99 52 -99 52 -96 50 C-92.63758494 54.20301882 -92.87069491 57.50965475 -93.0078125 62.62109375 C-92.99813086 65.56915324 -92.66593122 67.5407682 -91 70 C-87.19515235 71.20594324 -85.09716603 71.0387738 -81.5625 69.25 C-75.13751097 65.80059586 -69.63142933 61.1731286 -63.99169922 56.6015625 C-60.36546647 53.6856411 -56.6854003 50.84052118 -53 48 C-51.94123657 47.17242188 -51.94123657 47.17242188 -50.86108398 46.328125 C-44.32914218 41.29624896 -39.12211141 38.27108986 -30.69140625 38.5234375 C-26.30484044 39.30015888 -23.57593165 41.42309491 -21 45 C-18.08472289 50.59055561 -17.33037934 55.7029254 -16.8125 61.9375 C-16.4103125 66.4234375 -16.4103125 66.4234375 -16 71 C-9.4 71 -2.8 71 4 71 C2.92580497 64.80487994 1.84502269 58.61169794 0.74682617 52.42089844 C0.37532859 50.31482657 0.0077844 48.20805335 -0.35571289 46.10058594 C-0.87908176 43.07033018 -1.4166462 40.0428865 -1.95703125 37.015625 C-2.11653763 36.07382385 -2.27604401 35.13202271 -2.44038391 34.16168213 C-2.60032333 33.28107117 -2.76026276 32.40046021 -2.92504883 31.49316406 C-3.06050613 30.72039124 -3.19596344 29.94761841 -3.33552551 29.15142822 C-4.11235203 26.63622784 -5.42794462 25.09064161 -7 23 C-7.93295743 15.40306093 -5.64717203 8.07678173 -1.48828125 1.671875 C-0.99714844 1.12015625 -0.50601562 0.5684375 0 0 Z M-259.1875 48.75 C-260.26064453 49.51570313 -260.26064453 49.51570313 -261.35546875 50.296875 C-263.46308264 52.08499652 -263.46308264 52.08499652 -263 56 C-260.30798849 56.74778098 -258.5280149 57.1508614 -255.8125 56.375 C-253.379644 54.5293851 -252.83153257 52.91036398 -252 50 C-252 48.68 -252 47.36 -252 46 C-255.51775197 46 -256.41042715 46.70639812 -259.1875 48.75 Z M-56 66 C-56.6909375 66.43570312 -57.381875 66.87140625 -58.09375 67.3203125 C-59.42564298 68.1684519 -60.71992765 69.07550331 -62 70 C-62 70.33 -62 70.66 -62 71 C-57.62512669 71.08738991 -53.25047922 71.140524 -48.875 71.1875 C-47.6375 71.21263672 -46.4 71.23777344 -45.125 71.26367188 C-43.92617188 71.27333984 -42.72734375 71.28300781 -41.4921875 71.29296875 C-39.84259033 71.31653442 -39.84259033 71.31653442 -38.15966797 71.34057617 C-34.49887833 70.9459848 -32.11571067 69.94035548 -29 68 C-28.03093173 65.41585574 -28.03093173 65.41585574 -28 63 C-32.27453991 59.40038744 -35.59382764 58.19802974 -41.2109375 58.41015625 C-46.78710849 59.58943051 -51.32323943 62.86872065 -56 66 Z " fill="#DBDBDB" transform="translate(854,1069)"/>
<path d="M0 0 C0.13535156 0.60328125 0.27070312 1.2065625 0.41015625 1.828125 C1.5753983 6.66166802 1.5753983 6.66166802 4.72265625 10.27734375 C5.66431641 10.72787109 5.66431641 10.72787109 6.625 11.1875 C10 13 10 13 11.125 15.5625 C10.92221782 21.13900989 10.06007072 27.93992928 6 32 C5.96966961 34.04612721 5.96966961 34.04612721 6.390625 36.3671875 C6.52235107 37.24753662 6.65407715 38.12788574 6.78979492 39.03491211 C6.9416626 39.97214111 7.09353027 40.90937012 7.25 41.875 C7.39477783 42.82576416 7.53955566 43.77652832 7.6887207 44.75610352 C8.60091247 50.6931919 9.57225274 56.62116723 10.66796875 62.52734375 C11 65 11 65 11 71 C18.26 71 25.52 71 33 71 C32.08728708 65.6083279 31.16735409 60.21891397 30.22900391 54.83178711 C29.9125813 53.0024387 29.60032617 51.172364 29.29248047 49.34155273 C28.84681563 46.69568819 28.38575556 44.05288059 27.921875 41.41015625 C27.78940369 40.60353043 27.65693237 39.7969046 27.52044678 38.96583557 C26.6156074 33.91809469 25.1362784 29.67707384 22.80743408 25.10179138 C19.80891002 17.29648297 24.50737318 7.39672516 27 0 C29.42314351 0.97026286 30.73491864 1.5375803 32.0546875 3.83984375 C32.32539062 4.53207031 32.59609375 5.22429687 32.875 5.9375 C34.77815275 10.160831 36.85986024 10.97593167 41 13 C42.03695523 16.41129197 42.27663878 18.31296302 40.93359375 21.6484375 C40.43988281 22.54820313 39.94617187 23.44796875 39.4375 24.375 C36.30250027 31.46131519 37.23274784 37.26707269 38.58544922 44.63378906 C39.37714111 49.15268062 39.95210518 53.70373023 40.5625 58.25 C40.69245361 59.19770264 40.82240723 60.14540527 40.95629883 61.12182617 C42.12389755 69.69748212 43.05227742 78.16739518 43.01953125 86.83203125 C43.01671143 87.80503174 43.0138916 88.77803223 43.01098633 89.78051758 C43.00736084 90.51294678 43.00373535 91.24537598 43 92 C21.70341967 92.04670703 0.40684778 92.08198249 -20.88977337 92.10362434 C-30.77801411 92.11393982 -40.66622304 92.12800536 -50.55444336 92.15087891 C-59.17234675 92.17080445 -67.7902271 92.18371446 -76.40815288 92.18817699 C-80.97187038 92.19078578 -85.53552197 92.19692325 -90.09921837 92.21146011 C-94.39437843 92.2250308 -98.6894454 92.22922367 -102.98462486 92.22621536 C-104.56122341 92.22676575 -106.13782505 92.23074627 -107.71440506 92.23841095 C-109.86726882 92.24836424 -112.01978128 92.2459676 -114.1726532 92.24050903 C-115.97982834 92.24327441 -115.97982834 92.24327441 -117.82351208 92.24609566 C-122.06142213 91.91776724 -124.92776507 91.18315579 -127.8125 88 C-130.43298499 81.37982739 -129.02047538 73.88820878 -128 67 C-125.4587069 67.48871021 -123.76796743 68.14098181 -121.53125 69.5 C-116.71667 71.54513133 -112.30567826 71.56465194 -107.125 71.6875 C-106.15046875 71.72166016 -105.1759375 71.75582031 -104.171875 71.79101562 C-101.78136509 71.87304293 -99.39120095 71.94233848 -97 72 C-99.65621527 60.62128329 -99.65621527 60.62128329 -106.75 51.625 C-109.36105746 48.5787663 -109.59500974 46.71399279 -109.3671875 42.75390625 C-108.61401365 37.10510239 -107.63597064 31.4632414 -106 26 C-105.34 25.67 -104.68 25.34 -104 25 C-94.38816521 33.76373172 -89.94963706 44.08493595 -89 57 C-89 61.62 -89 66.24 -89 71 C-76.79 70.67 -64.58 70.34 -52 70 C-62.31935132 60.82724327 -67.79515458 57.49363908 -81 57 C-80.40231918 50.72435139 -78.08906282 46.84036487 -73.375 42.6875 C-70.13482839 40.3852728 -68.31069946 39.80325587 -64.375 39.6875 C-63.14910156 39.63142578 -63.14910156 39.63142578 -61.8984375 39.57421875 C-54.51818845 40.65837933 -49.41789922 44.98926236 -44.4375 50.25 C-43.87740234 50.82484131 -43.31730469 51.39968262 -42.74023438 51.99194336 C-39.16382874 55.68932787 -35.75700644 59.51193966 -32.41015625 63.41796875 C-28.15126029 68.19595452 -23.86556984 70.61703562 -17.4519043 71.25244141 C-14.50965569 71.41927383 -11.57054321 71.53378318 -8.625 71.625 C-7.09166016 71.68300781 -7.09166016 71.68300781 -5.52734375 71.7421875 C-3.01840403 71.83597964 -0.50946236 71.92167879 2 72 C0.93242048 65.64330258 -0.15383016 59.2900013 -1.25317383 52.9387207 C-1.62500683 50.77735008 -1.99254581 48.61523618 -2.35571289 46.45239258 C-2.87822583 43.34511574 -3.41608194 40.24083205 -3.95703125 37.13671875 C-4.11653763 36.16788254 -4.27604401 35.19904633 -4.44038391 34.20085144 C-4.60032333 33.3001442 -4.76026276 32.39943695 -4.92504883 31.47143555 C-5.06050613 30.67867722 -5.19596344 29.88591888 -5.33552551 29.06913757 C-6.10914716 26.66012165 -7.23449002 25.7591802 -9 24 C-10.07745711 15.7843895 -7.36759822 8.42912577 -4 1 C-2 0 -2 0 0 0 Z " fill="#DADADA" transform="translate(1240,1069)"/>
<path d="M0 0 C0.99 0 1.98 0 3 0 C3.40649327 2.54058292 3.8129078 5.08117816 4.21899414 7.62182617 C4.57626344 9.85266496 4.93484816 12.08329345 5.29467773 14.3137207 C6.24400627 20.21013789 7.17165614 26.10830273 8.05078125 32.015625 C8.22061523 33.13461182 8.39044922 34.25359863 8.56542969 35.40649414 C8.89060928 37.55290303 9.20798702 39.70051207 9.51660156 41.84936523 C10.30905557 47.01855798 11.0448836 51.55627134 14 56 C20.55509081 58.18503027 29.08135566 58.0260502 35.625 55.75 C39.76031022 53.60576507 42.05917872 51.83212565 44.1875 47.6875 C45.15723368 44.47991937 45.60896191 41.3238238 46 38 C47.65 38.33 49.3 38.66 51 39 C51.08636719 40.04800781 51.17273437 41.09601563 51.26171875 42.17578125 C51.40243612 43.55481148 51.54443016 44.93371185 51.6875 46.3125 C51.76774414 47.34793945 51.76774414 47.34793945 51.84960938 48.40429688 C52.23649543 51.88627141 52.56604719 53.62320562 55.25390625 55.95703125 C62.15573526 58.5783518 69.37270673 57.27651499 76.22265625 55.046875 C79.06899161 53.3703522 79.7117594 51.09317915 80.52734375 48 C80.66269531 47.34 80.79804687 46.68 80.9375 46 C81.70188525 42.72231603 82.68450824 40.52599101 85 38 C86.485 38.495 86.485 38.495 88 39 C88.495 46.425 88.495 46.425 89 54 C91.64 54.99 94.28 55.98 97 57 C96.67 56.175 96.34 55.35 96 54.5 C94.51061101 49.28713855 93.82156001 45.39033726 96.23828125 40.48828125 C97.71699451 38.15096029 99.09241793 36.00504977 101 34 C101.99 34 102.98 34 104 34 C105.77541538 41.63600985 106.53430878 49.1812896 107 57 C112.05583416 56.87641294 116.70074524 56.63904367 120.58203125 53.0078125 C123.96635893 48.21567909 125.91859453 42.45446328 128 37 C130.39559278 38.84129339 130.9606582 39.73103824 131.40625 42.77734375 C131.45265625 44.34162109 131.45265625 44.34162109 131.5 45.9375 C131.62896526 50.27395674 131.82225724 52.88725652 135 56 C140.79079213 58.34359681 148.97774719 57.54811421 155.0625 56.625 C158.55676641 54.69200156 158.62207355 54.00784755 159.6875 50.3125 C159.89375 49.42433594 160.1 48.53617188 160.3125 47.62109375 C161.27569656 43.94890685 162.984389 41.19717607 165 38 C165.99 38.33 166.98 38.66 168 39 C167.97679687 39.90363281 167.95359375 40.80726562 167.9296875 41.73828125 C167.91164063 42.91777344 167.89359375 44.09726563 167.875 45.3125 C167.85179687 46.48425781 167.82859375 47.65601563 167.8046875 48.86328125 C167.74679382 52.16393661 167.74679382 52.16393661 170 55 C173.55672179 56.2188121 173.55672179 56.2188121 177 57 C176.67 56.154375 176.34 55.30875 176 54.4375 C174.48726246 49.23746471 174.13180949 45.13656756 176.75 40.3125 C178.51669162 37.51103186 180.52094645 35.21344067 183 33 C185.35382141 39.09717909 186.45709633 44.45141058 186.51171875 50.97265625 C186.52966995 51.78117538 186.54762115 52.58969452 186.56611633 53.42271423 C186.61968544 55.96925862 186.65394079 58.51562157 186.6875 61.0625 C186.72072044 62.80406144 186.75521437 64.54559908 186.79101562 66.28710938 C186.87537993 70.52460737 186.94244258 74.76205658 187 79 C185.90953369 78.78706299 184.81906738 78.57412598 183.69555664 78.35473633 C182.24629303 78.07614458 180.79699084 77.7977535 179.34765625 77.51953125 C178.63113892 77.37906372 177.91462158 77.23859619 177.1763916 77.09387207 C170.49808899 75.81935767 164.28720361 75.00376023 157.6875 77.00390625 C149.3749808 79.24934311 139.07481131 79.19945354 131 76 C128.5 73.375 128.5 73.375 127 71 C124.45828796 72.17309786 122.27116256 73.4908497 119.9375 75.0625 C113.43219286 79.3532345 104.52401783 78.94731709 96.97558594 77.65283203 C95.02032782 77.22875956 93.07250726 76.77085272 91.125 76.3125 C85.5858785 75.07649768 82.68315356 74.95850835 77.578125 77.21875 C73.84619169 78.34963888 70.25447586 78.31705629 66.375 78.3125 C65.65779785 78.31741455 64.9405957 78.3223291 64.20166016 78.32739258 C59.51904703 78.26849518 55.44253433 77.62504689 51 76 C48.5625 73.375 48.5625 73.375 47 71 C44.47227188 72.16664375 42.35487294 73.45296155 40.0625 75.0625 C32.9367797 79.57060876 22.54794202 78.98222371 14.5 77.25 C10.65226761 75.87580986 8.70138014 75.07657183 6 72 C3.37368289 66.23491367 1.62975865 60.11159494 0 54 C-0.37511719 54.48210937 -0.75023437 54.96421875 -1.13671875 55.4609375 C-6.55964146 62.15421742 -6.55964146 62.15421742 -11 63 C-17.30698103 62.67930605 -23.01745975 60.9492293 -29 59 C-30.31262644 53.90575931 -29.51642788 50.463696 -27.5 45.75 C-27.22518799 45.09322266 -26.95037598 44.43644531 -26.66723633 43.75976562 C-21.79337899 32.54261523 -15.07799115 25.71866077 -5 19 C-4.24270881 17.22100339 -4.24270881 17.22100339 -3.8671875 15.15625 C-3.70089844 14.40472656 -3.53460937 13.65320312 -3.36328125 12.87890625 C-3.20214844 12.09386719 -3.04101562 11.30882812 -2.875 10.5 C-1.08177233 2.16354467 -1.08177233 2.16354467 0 0 Z M-8.0625 34.75 C-8.77535156 35.26046875 -9.48820312 35.7709375 -10.22265625 36.296875 C-12.20233084 38.19388186 -12.62207203 39.32543283 -13 42 C-9.50464719 43.13084944 -8.21132116 43.08940511 -4.75 41.625 C-2.17352165 40.25653533 -2.17352165 40.25653533 -1 39 C-1.28730055 36.66055264 -1.61936779 34.3260857 -2 32 C-4.75220928 32 -5.85880391 33.13422283 -8.0625 34.75 Z " fill="#D7D7D7" transform="translate(1798,1083)"/>
<path d="M0 0 C8.064375 -0.04125 16.12875 -0.0825 24.4375 -0.125 C26.96591553 -0.14320801 29.49433105 -0.16141602 32.09936523 -0.18017578 C34.12743925 -0.18602288 36.15551564 -0.19111792 38.18359375 -0.1953125 C39.21713989 -0.20554443 40.25068604 -0.21577637 41.31555176 -0.22631836 C50.02536962 -0.22839435 58.09162129 0.19068154 65 6 C71.74676477 14.00835493 71.68434637 21.9331657 71 32 C69.59172734 38.01879588 66.02621201 41.37566288 61.0390625 44.8125 C58.457986 46.31565566 55.89381525 47.27654619 53 48 C56.78651309 53.14835896 56.78651309 53.14835896 60.79296875 58.125 C65.39293036 63.58804719 69.22211065 69.3540404 72.9375 75.4375 C73.4224292 76.23140137 73.9073584 77.02530273 74.40698242 77.84326172 C76.24558512 80.89941051 77.86794651 83.60383954 79 87 C76.12474331 87.05425013 73.25052354 87.09379277 70.375 87.125 C69.56675781 87.14175781 68.75851563 87.15851563 67.92578125 87.17578125 C67.13300781 87.18222656 66.34023437 87.18867187 65.5234375 87.1953125 C64.80075684 87.20578613 64.07807617 87.21625977 63.33349609 87.22705078 C58.59087371 86.76559035 55.81753407 85.95272625 52.65405273 82.26611328 C51.89784059 81.1280218 51.1584343 79.9786368 50.43359375 78.8203125 C49.83152855 77.9065535 49.83152855 77.9065535 49.21730042 76.97433472 C47.9417403 75.0342371 46.68842171 73.08105681 45.4375 71.125 C44.18033516 69.17809533 42.9185135 67.234647 41.64698792 65.29708862 C40.85879768 64.09422157 40.07907952 62.88574466 39.30943298 61.67092896 C36.54523197 57.42615546 33.55873108 54.27936554 29 52 C25.7 51.67 22.4 51.34 19 51 C19 62.55 19 74.1 19 86 C12.73 86 6.46 86 0 86 C0 57.62 0 29.24 0 0 Z M19 16 C19 21.94 19 27.88 19 34 C23.20872148 34.08105241 27.4158763 34.14053316 31.625 34.1875 C32.81480469 34.21263672 34.00460938 34.23777344 35.23046875 34.26367188 C43.62676081 34.45507878 43.62676081 34.45507878 51 31 C52.59251643 27.81496713 52.39129761 24.4667595 52 21 C50.25746655 17.76386646 49.52814056 17.17604685 46 16 C43.93501108 15.91684248 41.8674211 15.89264122 39.80078125 15.90234375 C37.98803711 15.90717773 37.98803711 15.90717773 36.13867188 15.91210938 C34.87603516 15.92048828 33.61339844 15.92886719 32.3125 15.9375 C31.03826172 15.94201172 29.76402344 15.94652344 28.45117188 15.95117188 C25.3007613 15.96297117 22.15037481 15.98090682 19 16 Z " fill="#DFDFDF" transform="translate(2065,1352)"/>
<path d="M0 0 C8.064375 -0.04125 16.12875 -0.0825 24.4375 -0.125 C26.96591553 -0.14320801 29.49433105 -0.16141602 32.09936523 -0.18017578 C34.12743925 -0.18602288 36.15551564 -0.19111792 38.18359375 -0.1953125 C39.21713989 -0.20554443 40.25068604 -0.21577637 41.31555176 -0.22631836 C50.12456464 -0.22841799 57.94347904 0.25632015 65 6 C71.20663232 12.72385168 71.53663262 19.36953574 71.3046875 28.10546875 C70.83799816 34.07071582 69.5417717 37.60158201 65.19921875 41.69921875 C61.10410969 44.98325766 56.89804234 47.16323412 52 49 C52.94875 49.70125 53.8975 50.4025 54.875 51.125 C64.55845955 59.46136538 74.95096939 74.85290817 79 87 C75.93696422 87.08115993 72.87609185 87.14057409 69.8125 87.1875 C68.94818359 87.21263672 68.08386719 87.23777344 67.19335938 87.26367188 C62.30202613 87.3198941 58.85408532 87.33839785 55 84 C53.06929882 81.79237667 51.37151209 79.4616611 49.6875 77.0625 C49.21038574 76.39951904 48.73327148 75.73653809 48.24169922 75.0534668 C44.60954856 69.97174343 41.17340628 64.77835405 37.8515625 59.48828125 C35.41023711 56.20742835 32.66269664 53.83134832 29 52 C25.7 51.67 22.4 51.34 19 51 C19 62.55 19 74.1 19 86 C12.73 86 6.46 86 0 86 C0 57.62 0 29.24 0 0 Z M19 16 C19 21.94 19 27.88 19 34 C23.39620224 34.0809117 27.79091597 34.14046573 32.1875 34.1875 C34.05631836 34.22520508 34.05631836 34.22520508 35.96289062 34.26367188 C37.16494141 34.27333984 38.36699219 34.28300781 39.60546875 34.29296875 C41.26292114 34.31653442 41.26292114 34.31653442 42.95385742 34.34057617 C46.38865356 33.95654631 48.24290535 33.04813635 51 31 C52.59251643 27.81496713 52.39129761 24.4667595 52 21 C50.25746655 17.76386646 49.52814056 17.17604685 46 16 C43.93501108 15.91684248 41.8674211 15.89264122 39.80078125 15.90234375 C37.98803711 15.90717773 37.98803711 15.90717773 36.13867188 15.91210938 C34.87603516 15.92048828 33.61339844 15.92886719 32.3125 15.9375 C31.03826172 15.94201172 29.76402344 15.94652344 28.45117188 15.95117188 C25.3007613 15.96297117 22.15037481 15.98090682 19 16 Z " fill="#DFDFDF" transform="translate(1354,1352)"/>
<path d="M0 0 C5.61 0 11.22 0 17 0 C19.65371037 3.31713797 21.84894003 6.20707921 23.99609375 9.78125 C24.82512207 11.15361816 24.82512207 11.15361816 25.67089844 12.55371094 C26.25387695 13.52598633 26.83685547 14.49826172 27.4375 15.5 C28.68030032 17.55770812 29.92380711 19.61498969 31.16796875 21.671875 C32.11615479 23.24098633 32.11615479 23.24098633 33.08349609 24.84179688 C36.11000165 29.82916959 39.17690888 34.79123752 42.25 39.75 C43.07262329 41.0793457 43.07262329 41.0793457 43.91186523 42.43554688 C45.90546425 45.65157925 47.90089461 48.85134191 50 52 C50.33 34.84 50.66 17.68 51 0 C56.61 0 62.22 0 68 0 C68 28.71 68 57.42 68 87 C53 87 53 87 48 84 C46.27758789 81.82128906 46.27758789 81.82128906 44.72265625 79.265625 C44.13307129 78.30922119 43.54348633 77.35281738 42.93603516 76.36743164 C42.00863525 74.82430298 42.00863525 74.82430298 41.0625 73.25 C40.41587402 72.19482178 39.76924805 71.13964355 39.10302734 70.05249023 C37.05726648 66.7084676 35.02782753 63.35492208 33 60 C31.00084059 56.71290682 28.99939223 53.42721538 26.99780273 50.14160156 C25.7638408 48.11282723 24.53280916 46.08226727 23.30493164 44.04980469 C22.75313232 43.1374707 22.20133301 42.22513672 21.6328125 41.28515625 C21.14699707 40.47957275 20.66118164 39.67398926 20.16064453 38.84399414 C19.13122538 37.0573026 19.13122538 37.0573026 18 36 C17.67 52.5 17.34 69 17 86 C11.39 86 5.78 86 0 86 C0 57.62 0 29.24 0 0 Z " fill="#DFDFDF" transform="translate(565,1352)"/>
<path d="M0 0 C6.12804874 5.98372875 7.78989472 10.77926301 9 19.25 C3.39 20.24 -2.22 21.23 -8 22.25 C-10.88085938 18.49023438 -10.88085938 18.49023438 -13.76171875 14.73046875 C-16.90034428 11.25223627 -19.33723143 9.48907683 -24.015625 8.81640625 C-31.81033906 8.80699234 -38.57275927 9.2796244 -44.58984375 14.67578125 C-50.70231348 21.53237773 -50.91502243 29.45010065 -51 38.25 C-50.41069968 45.62093096 -48.87186515 53.38798692 -43.46484375 58.78125 C-38.10178538 62.98373765 -32.39480767 64.60174702 -25.625 64.125 C-21.14108022 63.49335217 -17.1944908 61.90516732 -13.06640625 60.08984375 C-11 59.25 -11 59.25 -9 59.25 C-8.505 54.3 -8.505 54.3 -8 49.25 C-14.27 49.25 -20.54 49.25 -27 49.25 C-27 43.97 -27 38.69 -27 33.25 C-14.79 33.25 -2.58 33.25 10 33.25 C10.8400822 40.81073984 11.22784811 47.87387863 11.125 55.4375 C11.14820313 56.58669922 11.17140625 57.73589844 11.1953125 58.91992188 C11.04350758 67.11264348 11.04350758 67.11264348 8.12963867 70.28857422 C5.81746502 71.86751323 3.54739707 73.09429571 1 74.25 C-0.04027344 74.78109375 -1.08054687 75.3121875 -2.15234375 75.859375 C-17.94924197 82.32879194 -31.80137583 82.67772271 -48 77.25 C-56.50521339 73.26393845 -63.66045262 66.01029465 -67.375 57.375 C-72.62896919 42.35701728 -72.46865555 26.4915578 -65.8125 11.875 C-60.14078037 1.63905629 -51.35005086 -4.1163357 -40.3125 -7.59765625 C-26.89821823 -10.6118773 -10.80044768 -8.95346558 0 0 Z " fill="#DDDDDD" transform="translate(163,1358.75)"/>
<path d="M0 0 C6.29883244 3.95508083 7.19392113 11.18475367 9 18 C9.30164063 19.08667969 9.60328125 20.17335938 9.9140625 21.29296875 C10.62426096 23.8583118 11.31928909 26.42670649 12 29 C19.06230609 28.5107419 19.06230609 28.5107419 25 25 C27.65676585 20.28817486 29.4130961 15.15743769 31 10 C32.9375 10.375 32.9375 10.375 35 11 C36.71779358 14.43558715 36.40446288 18.35899893 36.62109375 22.15234375 C36.81367373 25.19729591 36.81367373 25.19729591 39 28 C45.771077 30.25702567 54.46514958 29.91982678 61 27 C63.85263342 23.65553323 64.52813893 20.05287715 65.4609375 15.87109375 C66.15220814 13.47168333 67.32286313 11.82960385 69 10 C69.99 10.33 70.98 10.66 72 11 C72.495 18.425 72.495 18.425 73 26 C75.64 26.99 78.28 27.98 81 29 C80.67 28.154375 80.34 27.30875 80 26.4375 C78.47298357 21.18838102 78.17288959 17.07792212 80.75 12.1875 C82.79596462 9.28905012 83.70143456 8.06025318 87 7 C89.93294742 11.09193471 90.56305114 14.64907112 90.75 19.5625 C90.78528809 20.28759766 90.82057617 21.01269531 90.85693359 21.75976562 C91.20468966 30.83600682 90.82037265 39.95767031 90 49 C89.67 49.33 89.34 49.66 89 50 C83.34078117 49.88056843 77.81646484 49.32002839 72.375 47.75 C68.84952473 46.88122216 66.78948754 47.17319024 63.375 48.375 C54.68318349 51.43071674 43.60930786 51.41123519 35 48 C32.5 45.375 32.5 45.375 31 43 C28.52997755 44.14001036 26.55418955 45.3396651 24.375 47 C21.06902769 48.9590947 19.79316644 49.21745939 16.14453125 49.5859375 C13.11763483 50.15403213 11.47235511 50.53164338 9.26953125 52.71582031 C7.79166125 54.96033537 6.5342848 57.23168315 5.3125 59.625 C4.39468421 61.26733058 3.47156388 62.9067088 2.54296875 64.54296875 C1.89207275 65.70965088 1.89207275 65.70965088 1.22802734 66.89990234 C-2.40868339 73.1191838 -7.02042778 78.17415685 -13.875 80.6875 C-26.27282043 82.51070889 -35.80991974 75.18275502 -45.4765625 68.21484375 C-47.33258355 66.82774675 -49.17500684 65.42757345 -51 64 C-50.49396008 61.83125748 -50.00016187 60.00032373 -49 58 C-48.47792969 58.18175781 -47.95585937 58.36351562 -47.41796875 58.55078125 C-44.95309394 59.39255111 -42.47842301 60.19900242 -40 61 C-38.66582031 61.44666016 -38.66582031 61.44666016 -37.3046875 61.90234375 C-30.22125669 64.09195128 -23.85272943 65.04834412 -16.84375 62.08984375 C-11.51647733 59.06764098 -7.77483602 54.75393411 -4 50 C-4.66386719 49.78085938 -5.32773437 49.56171875 -6.01171875 49.3359375 C-15.28784291 46.00465787 -15.28784291 46.00465787 -18.1640625 41.9453125 C-22.00496334 33.0071414 -20.16135974 21.46850054 -16.703125 12.71875 C-13.05326153 4.96749357 -9.61211145 -1.54480363 0 0 Z M-7 20 C-8.70532323 21.94009522 -8.70532323 21.94009522 -10 24 C-8.77992056 26.6905528 -8.77992056 26.6905528 -7 29 C-4.66702567 29.04092937 -2.33294775 29.04241723 0 29 C-1.12697043 24.03088634 -1.12697043 24.03088634 -4 20 C-4.99 20 -5.98 20 -7 20 Z " fill="#D7D7D7" transform="translate(366,1111)"/>
<path d="M0 0 C5.4244243 4.91982669 8.38314169 8.78632448 10 16 C10 17.98 10 19.96 10 22 C4.06 22.33 -1.88 22.66 -8 23 C-9.32 20.36 -10.64 17.72 -12 15 C-16.44254281 11.30882321 -20.553818 11.55748191 -26.109375 11.71484375 C-29.72090463 12.07111627 -32.12690623 12.74811569 -35 15 C-35.96906827 17.58414426 -35.96906827 17.58414426 -36 20 C-32.31636102 23.28399079 -29.22016439 24.81780343 -24.484375 26.1484375 C-23.23269531 26.51453125 -21.98101563 26.880625 -20.69140625 27.2578125 C-18.7270789 27.8173748 -16.76143879 28.37180114 -14.79443359 28.921875 C-5.39679789 31.57242952 2.60103441 34.37544644 9.4375 41.5625 C12.76349348 48.87968567 14.03123063 57.21276155 11.75 65.01171875 C9.11342132 72.00139868 5.52758349 76.20569794 -1 80 C-13.82042694 85.66125382 -27.81230766 85.07198921 -41 81 C-48.08965487 77.78024408 -52.46477841 72.86671855 -56 66 C-57.49996884 61.9091759 -58.38482419 58.36134076 -58 54 C-55.58564581 51.58564581 -49.79681945 52.01967455 -46.46875 51.9375 C-44.31152843 51.9375 -42.15671869 51.95506836 -40 52 C-39.56300781 53.01320313 -39.56300781 53.01320313 -39.1171875 54.046875 C-36.50100786 59.73994516 -34.65874492 63.17062754 -29 66 C-22.42766301 68.190779 -17.36121056 66.66772598 -11.13671875 64.265625 C-8.60904218 62.76842718 -7.93628132 61.7571157 -7 59 C-6.83414809 55.41094915 -6.83414809 55.41094915 -8 52 C-14.27849531 47.87840274 -22.32818893 46.66678417 -29.52734375 44.86914062 C-38.26836978 42.55471938 -46.917289 39.68672029 -52.0625 31.8125 C-55.45326097 25.69465014 -55.72858526 19.88387449 -55 13 C-53.16268784 7.01843665 -50.34053224 2.27627042 -44.95703125 -1.04296875 C-31.10740664 -7.81573927 -13.35197871 -8.46710845 0 0 Z " fill="#DCDCDC" transform="translate(1959,1356)"/>
<path d="M0 0 C6.1128915 5.54425043 9.63400746 10.38811435 10.1875 18.875 C10 21 10 21 9 22 C3.46594106 22.97130829 -2.40610462 23.97172971 -8 23 C-10.49193172 20.93437759 -11.43888864 19.13667797 -12.83203125 16.2421875 C-13.9483697 13.64578795 -13.9483697 13.64578795 -17.3125 11.875 C-23.54291175 10.39659721 -29.21852218 11.20251073 -35 14 C-35.33 16.31 -35.66 18.62 -36 21 C-32.68505815 23.86872913 -29.56617626 24.89842553 -25.36328125 26.05078125 C-24.05001902 26.4234365 -22.73687163 26.79649666 -21.42382812 27.16992188 C-19.37633899 27.74163765 -17.32772189 28.30835455 -15.27661133 28.86694336 C-5.74778454 31.47955596 2.93702173 34.10359029 9.4375 41.9375 C13.38536283 49.67531114 14.27030983 57.2910226 11.875 65.625 C8.94191026 73.38349543 4.10800391 77.60827136 -3.3671875 81 C-15.51454394 85.61383271 -28.77600282 85.13735289 -41 81 C-49.23782502 77.1523931 -53.82954483 71.0315097 -57.375 62.8125 C-58.05099291 59.77053192 -58.21672073 57.10633052 -58 54 C-55.58564581 51.58564581 -49.79681945 52.01967455 -46.46875 51.9375 C-44.31152843 51.9375 -42.15671869 51.95506836 -40 52 C-39.56300781 53.01320313 -39.56300781 53.01320313 -39.1171875 54.046875 C-36.50100786 59.73994516 -34.65874492 63.17062754 -29 66 C-22.25459842 68.24846719 -17.18055313 67.03048674 -10.8828125 64.265625 C-8.60429382 62.73400664 -7.9160717 61.56982219 -7 59 C-6.83414809 55.41094915 -6.83414809 55.41094915 -8 52 C-11.89122608 49.67335702 -15.81672662 48.34406116 -20.17578125 47.16796875 C-21.33400391 46.84376953 -22.49222656 46.51957031 -23.68554688 46.18554688 C-26.08963702 45.52400134 -28.49588838 44.87025668 -30.90429688 44.22460938 C-39.07472593 41.91803789 -46.38419204 39.31032949 -51.97265625 32.6484375 C-55.42160212 25.45386224 -56.5124751 18.51442785 -54.37109375 10.70703125 C-51.71999218 4.56075541 -46.74672872 -0.2692776 -40.69140625 -3.06640625 C-27.58493836 -7.64151393 -12.04353693 -7.63736488 0 0 Z " fill="#DCDCDC" transform="translate(1248,1356)"/>
<path d="M0 0 C5.94 0 11.88 0 18 0 C18.33 11.55 18.66 23.1 19 35 C22.63 31.04 26.26 27.08 30 23 C35.6875 16.8125 35.6875 16.8125 37.04907227 15.33447266 C40.5327526 11.54164125 43.91550523 7.66983617 47.24609375 3.7421875 C49.81946886 1.18600643 51.92492851 0.09514812 55.56542969 -0.22705078 C56.97937012 -0.21134033 56.97937012 -0.21134033 58.421875 -0.1953125 C59.95908203 -0.18564453 59.95908203 -0.18564453 61.52734375 -0.17578125 C62.59082031 -0.15902344 63.65429688 -0.14226562 64.75 -0.125 C65.82894531 -0.11597656 66.90789062 -0.10695313 68.01953125 -0.09765625 C70.67991278 -0.07411305 73.33984336 -0.04122799 76 0 C70.57629187 7.87499258 63.90857312 14.31724835 57.125 21 C55.94745054 22.16749879 54.77036324 23.33546393 53.59375 24.50390625 C50.73446733 27.34134272 47.8690022 30.17239294 45 33 C48.65298619 39.84619272 52.7274098 46.33859342 57 52.8125 C58.32423633 54.83332182 59.6484547 56.85415539 60.97265625 58.875 C62.96788166 61.91148518 64.96491087 64.94676011 66.96435547 67.98046875 C68.79234768 70.75545923 70.61513993 73.53380904 72.4375 76.3125 C72.99888672 77.15981689 73.56027344 78.00713379 74.13867188 78.88012695 C74.64849609 79.65831787 75.15832031 80.43650879 75.68359375 81.23828125 C76.13275146 81.91930908 76.58190918 82.60033691 77.04467773 83.30200195 C78 85 78 85 78 87 C74.77090994 87.05834353 71.54195662 87.09371115 68.3125 87.125 C67.40048828 87.14175781 66.48847656 87.15851563 65.54882812 87.17578125 C64.66259766 87.18222656 63.77636719 87.18867187 62.86328125 87.1953125 C61.64572144 87.21102295 61.64572144 87.21102295 60.40356445 87.22705078 C57.48137301 86.95100832 55.57843702 86.4315743 53 85 C51.04296875 82.42138672 51.04296875 82.42138672 49.1875 79.1796875 C48.85129639 78.60219757 48.51509277 78.02470764 48.16870117 77.42971802 C47.0988667 75.58560731 46.04910785 73.7309654 45 71.875 C44.29561641 70.6502668 43.58989904 69.42629968 42.8828125 68.203125 C41.52626701 65.85598397 40.17706904 63.50518332 38.83203125 61.15136719 C37.27746653 58.47728384 35.67002549 55.8604649 34 53.2578125 C32 50 32 50 32 48 C30.76878615 49.06012706 29.54014315 50.12324005 28.3125 51.1875 C27.62800781 51.77917969 26.94351562 52.37085938 26.23828125 52.98046875 C25.49964844 53.64691406 24.76101563 54.31335937 24 55 C23.1028125 55.6290625 22.205625 56.258125 21.28125 56.90625 C17.59725334 61.90235506 18.2167731 67.26597754 18.1875 73.3125 C18.16236328 74.53001953 18.13722656 75.74753906 18.11132812 77.00195312 C18.05252416 80.00095519 18.02338367 83.00051263 18 86 C12.06 86 6.12 86 0 86 C0 57.62 0 29.24 0 0 Z " fill="#DFDFDF" transform="translate(305,1352)"/>
<path d="M0 0 C5.0338739 6.45520301 6.7677018 11.86956297 7 20 C1.06 20.33 -4.88 20.66 -11 21 C-11.66 19.7625 -12.32 18.525 -13 17.25 C-15.84639315 12.74854117 -18.80069347 10.32075407 -24 9 C-29.15596971 8.74177113 -34.02342053 9.52049296 -38 13 C-38.88658466 15.59122743 -38.88658466 15.59122743 -39 18 C-35.31636102 21.28399079 -32.22016439 22.81780343 -27.484375 24.1484375 C-26.23269531 24.51453125 -24.98101563 24.880625 -23.69140625 25.2578125 C-21.7270789 25.8173748 -19.76143879 26.37180114 -17.79443359 26.921875 C-8.40125859 29.5711714 -0.17222105 32.29287881 6.4375 39.75 C10.33237843 47.85134713 11.09259598 56.60848402 8.28125 65.1953125 C5.55929322 71.36664554 1.46162966 75.40428559 -4.65234375 78.22265625 C-17.77257838 83.24398061 -30.60880287 83.13482578 -44 79 C-51.08965487 75.78024408 -55.46477841 70.86671855 -59 64 C-60.49996884 59.9091759 -61.38482419 56.36134076 -61 52 C-58.58564581 49.58564581 -52.79681945 50.01967455 -49.46875 49.9375 C-47.31152843 49.9375 -45.15671869 49.95506836 -43 50 C-42.56300781 51.01320313 -42.56300781 51.01320313 -42.1171875 52.046875 C-39.50100786 57.73994516 -37.65874492 61.17062754 -32 64 C-26.29877746 65.90040751 -21.25160435 65.25103587 -15.8046875 62.97265625 C-12.91395115 61.41466198 -11.51758987 59.90321539 -10 57 C-9.66339855 53.35592863 -9.66339855 53.35592863 -11 50 C-17.23190489 45.99526917 -24.98498624 44.62449762 -32.05859375 42.69335938 C-47.71736181 38.29361791 -47.71736181 38.29361791 -52.875 32.0625 C-53.42929688 31.41410156 -53.98359375 30.76570313 -54.5546875 30.09765625 C-58.67059022 24.12403528 -58.82384161 18.03771075 -58 11 C-55.98526658 4.0071146 -52.50296929 -0.22449736 -46.26171875 -3.88671875 C-33.03436922 -10.39759028 -11.44718905 -10.14637212 0 0 Z " fill="#DCDCDC" transform="translate(1775,1358)"/>
<path d="M0 0 C21.12 0 42.24 0 64 0 C64 5.28 64 10.56 64 16 C49.15 16 34.3 16 19 16 C19 21.61 19 27.22 19 33 C32.86 33 46.72 33 61 33 C61 38.28 61 43.56 61 49 C47.14 49 33.28 49 19 49 C19 55.93 19 62.86 19 70 C34.51 70 50.02 70 66 70 C66 75.28 66 80.56 66 86 C44.22 86 22.44 86 0 86 C0 57.62 0 29.24 0 0 Z " fill="#DFDFDF" transform="translate(1274,1352)"/>
<path d="M0 0 C21.12 0 42.24 0 64 0 C64 4.95 64 9.9 64 15 C48.82 15 33.64 15 18 15 C18 20.94 18 26.88 18 33 C31.86 33 45.72 33 60 33 C60 38.61 60 44.22 60 50 C46.14 50 32.28 50 18 50 C18 56.6 18 63.2 18 70 C33.51 70 49.02 70 65 70 C65 75.28 65 80.56 65 86 C43.55 86 22.1 86 0 86 C0 57.62 0 29.24 0 0 Z " fill="#E7E7E7" transform="translate(1639,1352)"/>
<path d="M0 0 C20.79 0 41.58 0 63 0 C63 4.95 63 9.9 63 15 C48.15 15 33.3 15 18 15 C18 20.94 18 26.88 18 33 C31.86 33 45.72 33 60 33 C60 38.61 60 44.22 60 50 C46.14 50 32.28 50 18 50 C18 56.6 18 63.2 18 70 C33.51 70 49.02 70 65 70 C65 75.28 65 80.56 65 86 C43.55 86 22.1 86 0 86 C0 57.62 0 29.24 0 0 Z " fill="#DFDFDF" transform="translate(771,1352)"/>
<path d="M0 0 C5.61 0 11.22 0 17 0 C17 10.89 17 21.78 17 33 C27.89 33 38.78 33 50 33 C50 22.11 50 11.22 50 0 C56.27 0 62.54 0 69 0 C69 28.38 69 56.76 69 86 C63.06 86 57.12 86 51 86 C51 74.12 51 62.24 51 50 C40.11 50 29.22 50 18 50 C18 61.88 18 73.76 18 86 C12.06 86 6.12 86 0 86 C0 57.62 0 29.24 0 0 Z " fill="#E0E0E0" transform="translate(1075,1352)"/>
<path d="M0 0 C5.61 0 11.22 0 17 0 C17 10.89 17 21.78 17 33 C28.22 33 39.44 33 51 33 C51 22.11 51 11.22 51 0 C56.94 0 62.88 0 69 0 C69 28.38 69 56.76 69 86 C63.06 86 57.12 86 51 86 C51 74.12 51 62.24 51 50 C40.11 50 29.22 50 18 50 C18 61.88 18 73.76 18 86 C12.06 86 6.12 86 0 86 C0 57.62 0 29.24 0 0 Z " fill="#E4E4E4" transform="translate(684,1352)"/>
<path d="M0 0 C2.0249885 -0.09274756 4.04999301 -0.1851687 6.07510376 -0.27520752 C7.63051927 -0.34868747 9.18512994 -0.43972042 10.73901367 -0.54052734 C11.41681885 -0.5555127 12.09462402 -0.57049805 12.79296875 -0.5859375 C13.4789917 -0.6173584 14.16501465 -0.6487793 14.87182617 -0.68115234 C18.39691521 0.44710261 20.10570996 2.9842108 22 6 C23.85896623 9.75904012 25.40700932 13.62154853 26.94921875 17.51953125 C27.63550102 19.2157386 27.63550102 19.2157386 28.33564758 20.94621277 C29.79663348 24.56423298 31.24226052 28.18816513 32.6875 31.8125 C33.63896957 34.17553487 34.59143501 36.53816901 35.54492188 38.90039062 C37.90463964 44.75359305 40.24828168 50.61308898 42.58831787 56.47418213 C44.02999318 60.07491099 45.48177155 63.67142837 46.93603516 67.26708984 C47.63524834 69.00063972 47.63524834 69.00063972 48.34858704 70.76921082 C49.23646542 72.97021213 50.12681377 75.1702191 51.01994324 77.36909485 C51.41272964 78.34517197 51.80551605 79.32124908 52.21020508 80.3269043 C52.5571492 81.18438766 52.90409332 82.04187103 53.2615509 82.92533875 C54 85 54 85 54 87 C51.24973583 87.05404449 48.50053797 87.09369306 45.75 87.125 C44.97269531 87.14175781 44.19539063 87.15851563 43.39453125 87.17578125 C35.52416259 87.24304936 35.52416259 87.24304936 33 85 C31.5270478 82.40600594 30.41621289 79.70519832 29.3125 76.9375 C27.67214354 72.12362512 27.67214354 72.12362512 25 68 C22.70848583 67.91209025 20.41427476 67.89305962 18.12109375 67.90234375 C17.4344313 67.9037587 16.74776886 67.90517365 16.04029846 67.90663147 C13.83932199 67.91224521 11.63844591 67.92479993 9.4375 67.9375 C7.94856917 67.94251324 6.45963676 67.94707645 4.97070312 67.95117188 C1.31376925 67.96221907 -2.34310558 67.97949287 -6 68 C-8.53101042 72.96526498 -10.84798036 77.92294966 -12.875 83.1171875 C-14.36095548 85.6040991 -15.22348169 86.12893543 -18 87 C-20.78824758 87.13997227 -23.46827116 87.1888913 -26.25 87.125 C-26.99507812 87.11597656 -27.74015625 87.10695313 -28.5078125 87.09765625 C-30.33868059 87.07418358 -32.16938238 87.03831525 -34 87 C-31.81984279 79.12249865 -28.98810369 71.58925964 -25.95703125 64.00390625 C-25.46450958 62.76346381 -24.97230359 61.52289599 -24.48039246 60.2822113 C-23.45166528 57.69011751 -22.42018253 55.09914464 -21.38647461 52.5090332 C-20.0859211 49.25009509 -18.79068815 45.9890771 -17.4973011 42.7272892 C-11.82187664 28.41805608 -6.05990455 14.15160078 0 0 Z M9 24 C2.82070562 36.59414832 2.82070562 36.59414832 0 50 C6.27 50 12.54 50 19 50 C18.26006651 46.30033256 17.48783502 43.37328742 16.15234375 39.91796875 C15.79462891 38.98662109 15.43691406 38.05527344 15.06835938 37.09570312 C14.50858398 35.65614258 14.50858398 35.65614258 13.9375 34.1875 C13.56044922 33.20845703 13.18339844 32.22941406 12.79492188 31.22070312 C11.86684405 28.8123999 10.93509884 26.40558386 10 24 C9.67 24 9.34 24 9 24 Z " fill="#DEDEDE" transform="translate(213,1352)"/>
<path d="M0 0 C0.71220703 -0.04125 1.42441406 -0.0825 2.15820312 -0.125 C4.26953125 -0.15625 4.26953125 -0.15625 8.1875 0.5 C12.10217782 4.4826058 14.35468125 8.49615623 16.359375 13.703125 C16.63943893 14.40263779 16.91950287 15.10215057 17.20805359 15.82286072 C18.12830587 18.12791048 19.03286975 20.43877984 19.9375 22.75 C20.58097154 24.3706521 21.22560755 25.99084227 21.87133789 27.6105957 C22.89373299 30.17651437 23.91491052 32.74287443 24.93177795 35.31098938 C27.56562539 41.96154998 30.24738255 48.59163964 32.94921875 55.21484375 C33.34088226 56.17611176 33.73254578 57.13737976 34.13607788 58.1277771 C35.68200178 61.92196731 37.22801456 65.71611509 38.7779541 69.50866699 C39.85396296 72.14377406 40.92554109 74.78064124 41.99609375 77.41796875 C42.32034836 78.20896469 42.64460297 78.99996063 42.97868347 79.81492615 C45.1875 85.27203583 45.1875 85.27203583 45.1875 87.5 C42.43723583 87.55404449 39.68803797 87.59369306 36.9375 87.625 C36.16019531 87.64175781 35.38289062 87.65851563 34.58203125 87.67578125 C26.71166259 87.74304936 26.71166259 87.74304936 24.1875 85.5 C22.7145478 82.90600594 21.60371289 80.20519832 20.5 77.4375 C18.85964354 72.62362512 18.85964354 72.62362512 16.1875 68.5 C13.89598583 68.41209025 11.60177476 68.39305962 9.30859375 68.40234375 C8.6219313 68.4037587 7.93526886 68.40517365 7.22779846 68.40663147 C5.02682199 68.41224521 2.82594591 68.42479993 0.625 68.4375 C-0.86393083 68.44251324 -2.35286324 68.44707645 -3.84179688 68.45117188 C-7.49873075 68.46221907 -11.15560558 68.47949287 -14.8125 68.5 C-17.34351042 73.46526498 -19.66048036 78.42294966 -21.6875 83.6171875 C-23.17345548 86.1040991 -24.03598169 86.62893543 -26.8125 87.5 C-29.60074758 87.63997227 -32.28077116 87.6888913 -35.0625 87.625 C-35.80757812 87.61597656 -36.55265625 87.60695313 -37.3203125 87.59765625 C-39.15118059 87.57418358 -40.98188238 87.53831525 -42.8125 87.5 C-40.72761948 80.04198478 -38.11777469 72.88934079 -35.2421875 65.703125 C-34.80166046 64.59306091 -34.36113342 63.48299683 -33.90725708 62.33929443 C-32.5045686 58.80796548 -31.0960069 55.27901161 -29.6875 51.75 C-28.76526683 49.42852767 -27.84338904 47.10691413 -26.921875 44.78515625 C-24.66961647 39.11685394 -22.40617942 33.45313222 -20.13415527 27.79272461 C-19.25170123 25.59421022 -18.37060151 23.39515175 -17.49084473 21.19555664 C-16.25202515 18.10207054 -15.00612229 15.01154169 -13.7578125 11.921875 C-13.38727753 10.99441467 -13.01674255 10.06695435 -12.63497925 9.11138916 C-12.29153473 8.26606628 -11.94809021 7.42074341 -11.59423828 6.54980469 C-11.29687775 5.81203796 -10.99951721 5.07427124 -10.69314575 4.31414795 C-8.36423018 -0.48346494 -4.73134226 0.06741004 0 0 Z M0.1875 24.5 C-5.99179438 37.09414832 -5.99179438 37.09414832 -8.8125 50.5 C-2.5425 50.5 3.7275 50.5 10.1875 50.5 C9.44756651 46.80033256 8.67533502 43.87328742 7.33984375 40.41796875 C6.98212891 39.48662109 6.62441406 38.55527344 6.25585938 37.59570312 C5.69608398 36.15614258 5.69608398 36.15614258 5.125 34.6875 C4.74794922 33.70845703 4.37089844 32.72941406 3.98242188 31.72070312 C3.05434405 29.3123999 2.12259884 26.90558386 1.1875 24.5 C0.8575 24.5 0.5275 24.5 0.1875 24.5 Z " fill="#DEDEDE" transform="translate(883.8125,1351.5)"/>
<path d="M0 0 C1.41899243 -0.02917555 2.83857776 -0.0362234 4.2578125 -0.0234375 C4.96550781 -0.05566406 5.67320313 -0.08789062 6.40234375 -0.12109375 C8.5 -0.125 8.5 -0.125 12.3828125 0.6015625 C16.29250068 4.58927939 18.54965181 8.59683057 20.5546875 13.8046875 C20.83475143 14.50420029 21.11481537 15.20371307 21.40336609 15.92442322 C22.32361837 18.22947298 23.22818225 20.54034234 24.1328125 22.8515625 C24.77628404 24.4722146 25.42092005 26.09240477 26.06665039 27.7121582 C27.08904549 30.27807687 28.11022302 32.84443693 29.12709045 35.41255188 C31.76093789 42.06311248 34.44269505 48.69320214 37.14453125 55.31640625 C37.53619476 56.27767426 37.92785828 57.23894226 38.33139038 58.2293396 C39.87731428 62.02352981 41.42332706 65.81767759 42.9732666 69.61022949 C44.04927546 72.24533656 45.12085359 74.88220374 46.19140625 77.51953125 C46.51566086 78.31052719 46.83991547 79.10152313 47.17399597 79.91648865 C49.3828125 85.37359833 49.3828125 85.37359833 49.3828125 87.6015625 C46.63254833 87.65560699 43.88335047 87.69525556 41.1328125 87.7265625 C40.35550781 87.74332031 39.57820313 87.76007813 38.77734375 87.77734375 C30.90697509 87.84461186 30.90697509 87.84461186 28.3828125 85.6015625 C26.9098603 83.00756844 25.79902539 80.30676082 24.6953125 77.5390625 C23.05495604 72.72518762 23.05495604 72.72518762 20.3828125 68.6015625 C18.09129833 68.51365275 15.79708726 68.49462212 13.50390625 68.50390625 C12.8172438 68.5053212 12.13058136 68.50673615 11.42311096 68.50819397 C9.22213449 68.51380771 7.02125841 68.52636243 4.8203125 68.5390625 C3.33138167 68.54407574 1.84244926 68.54863895 0.35351562 68.55273438 C-3.30341825 68.56378157 -6.96029308 68.58105537 -10.6171875 68.6015625 C-13.14819792 73.56682748 -15.46516786 78.52451216 -17.4921875 83.71875 C-18.96887684 86.19015368 -19.86610908 86.72704751 -22.6171875 87.6015625 C-25.24145255 87.74115107 -27.75011497 87.79087619 -30.3671875 87.7265625 C-31.06457031 87.71753906 -31.76195312 87.70851563 -32.48046875 87.69921875 C-34.19285708 87.67576138 -35.90506754 87.63989354 -37.6171875 87.6015625 C-37.0465423 81.57752075 -35.24625015 76.50751178 -33.00390625 70.91015625 C-32.63792328 69.97916611 -32.27194031 69.04817596 -31.89486694 68.088974 C-30.7056074 65.06932635 -29.50551483 62.05412654 -28.3046875 59.0390625 C-27.4837618 56.96391473 -26.66337053 54.88855547 -25.84350586 52.81298828 C-24.20770922 48.67580236 -22.56722372 44.54052294 -20.92285156 40.40673828 C-19.180894 36.02594967 -17.45031474 31.64088675 -15.72911072 27.25190735 C-14.63374263 24.46007257 -13.53322912 21.67029028 -12.43106079 18.88113403 C-11.69588975 17.01763176 -10.96544449 15.15226732 -10.23510742 13.28686523 C-9.79529541 12.18157471 -9.3554834 11.07628418 -8.90234375 9.9375 C-8.52988525 8.99438965 -8.15742676 8.0512793 -7.77368164 7.07958984 C-4.84574421 0.80587971 -4.84574421 0.80587971 0 0 Z M4.3828125 23.6015625 C2.87479682 27.53603959 1.37778336 31.47461227 -0.1171875 35.4140625 C-0.76107422 37.09338867 -0.76107422 37.09338867 -1.41796875 38.80664062 C-1.82402344 39.87978516 -2.23007812 40.95292969 -2.6484375 42.05859375 C-3.02548828 43.04835205 -3.40253906 44.03811035 -3.79101562 45.05786133 C-4.77164075 47.63135792 -4.77164075 47.63135792 -4.6171875 50.6015625 C1.6528125 50.6015625 7.9228125 50.6015625 14.3828125 50.6015625 C13.63867682 46.88088409 12.82863187 43.81164365 11.53515625 40.30078125 C10.99858398 38.83608398 10.99858398 38.83608398 10.45117188 37.34179688 C10.07798828 36.33439453 9.70480469 35.32699219 9.3203125 34.2890625 C8.94326172 33.26232422 8.56621094 32.23558594 8.17773438 31.17773438 C7.24935182 28.65112363 6.31761121 26.12580489 5.3828125 23.6015625 C5.0528125 23.6015625 4.7228125 23.6015625 4.3828125 23.6015625 Z " fill="#DFDFDF" transform="translate(37.6171875,1351.3984375)"/>
<path d="M0 0 C0.71220703 -0.04125 1.42441406 -0.0825 2.15820312 -0.125 C6.0124866 -0.18204767 7.80888097 0.13918092 10.62304688 2.82104492 C14.1464073 7.37252193 16.03595592 12.70978727 18.13671875 18.01953125 C18.82300102 19.7157386 18.82300102 19.7157386 19.52314758 21.44621277 C20.98413348 25.06423298 22.42976052 28.68816513 23.875 32.3125 C24.82646957 34.67553487 25.77893501 37.03816901 26.73242188 39.40039062 C29.09213964 45.25359305 31.43578168 51.11308898 33.77581787 56.97418213 C35.21749318 60.57491099 36.66927155 64.17142837 38.12353516 67.76708984 C38.82274834 69.50063972 38.82274834 69.50063972 39.53608704 71.26921082 C40.42396542 73.47021213 41.31431377 75.6702191 42.20744324 77.86909485 C42.60022964 78.84517197 42.99301605 79.82124908 43.39770508 80.8269043 C43.7446492 81.68438766 44.09159332 82.54187103 44.4490509 83.42533875 C45.1875 85.5 45.1875 85.5 45.1875 87.5 C42.43723583 87.55404449 39.68803797 87.59369306 36.9375 87.625 C36.16019531 87.64175781 35.38289062 87.65851563 34.58203125 87.67578125 C33.82792969 87.68222656 33.07382812 87.68867187 32.296875 87.6953125 C31.60561523 87.70578613 30.91435547 87.71625977 30.20214844 87.72705078 C27.7478254 87.45044869 26.24933184 86.86374832 24.1875 85.5 C23.09082031 83.71240234 23.09082031 83.71240234 22.265625 81.5859375 C21.99137695 80.90063965 21.71712891 80.2153418 21.43457031 79.50927734 C20.94102051 78.20531006 20.94102051 78.20531006 20.4375 76.875 C19.365 74.11125 18.2925 71.3475 17.1875 68.5 C6.2975 68.5 -4.5925 68.5 -15.8125 68.5 C-17.70313057 73.67331905 -17.70313057 73.67331905 -19.58154297 78.85107422 C-21.59027778 84.27777778 -21.59027778 84.27777778 -23.8125 86.5 C-27.58658886 87.92876221 -31.58787881 87.6113375 -35.5625 87.5625 C-36.25988281 87.55798828 -36.95726562 87.55347656 -37.67578125 87.54882812 C-39.38805803 87.5371002 -41.10029033 87.51916653 -42.8125 87.5 C-40.72761948 80.04198478 -38.11777469 72.88934079 -35.2421875 65.703125 C-34.80166046 64.59306091 -34.36113342 63.48299683 -33.90725708 62.33929443 C-32.5045686 58.80796548 -31.0960069 55.27901161 -29.6875 51.75 C-28.76526683 49.42852767 -27.84338904 47.10691413 -26.921875 44.78515625 C-24.66961647 39.11685394 -22.40617942 33.45313222 -20.13415527 27.79272461 C-19.25170123 25.59421022 -18.37060151 23.39515175 -17.49084473 21.19555664 C-16.25202515 18.10207054 -15.00612229 15.01154169 -13.7578125 11.921875 C-13.38727753 10.99441467 -13.01674255 10.06695435 -12.63497925 9.11138916 C-12.29153473 8.26606628 -11.94809021 7.42074341 -11.59423828 6.54980469 C-11.29687775 5.81203796 -10.99951721 5.07427124 -10.69314575 4.31414795 C-8.36423018 -0.48346494 -4.73134226 0.06741004 0 0 Z M0.1875 23.5 C-1.32051568 27.43447709 -2.81752914 31.37304977 -4.3125 35.3125 C-4.95638672 36.99182617 -4.95638672 36.99182617 -5.61328125 38.70507812 C-6.01933594 39.77822266 -6.42539062 40.85136719 -6.84375 41.95703125 C-7.22080078 42.94678955 -7.59785156 43.93654785 -7.98632812 44.95629883 C-8.96695325 47.52979542 -8.96695325 47.52979542 -8.8125 50.5 C-2.5425 50.5 3.7275 50.5 10.1875 50.5 C9.44336432 46.77932159 8.63331937 43.71008115 7.33984375 40.19921875 C6.80327148 38.73452148 6.80327148 38.73452148 6.25585938 37.24023438 C5.88267578 36.23283203 5.50949219 35.22542969 5.125 34.1875 C4.74794922 33.16076172 4.37089844 32.13402344 3.98242188 31.07617188 C3.05403932 28.54956113 2.12229871 26.02424239 1.1875 23.5 C0.8575 23.5 0.5275 23.5 0.1875 23.5 Z " fill="#DEDEDE" transform="translate(510.8125,1351.5)"/>
<path d="M0 0 C1.42838399 -0.01061009 2.85706246 0.0005658 4.28515625 0.03125 C5.00123047 0.01578125 5.71730469 0.0003125 6.45507812 -0.015625 C9.58490276 0.00758037 11.79336746 0.11927768 14.34448242 2.01538086 C17.11467248 5.49457751 18.55581408 9.20202082 20.18359375 13.31640625 C20.71820221 14.63209595 20.71820221 14.63209595 21.26361084 15.97436523 C22.42657295 18.84358848 23.57486013 21.71843 24.72265625 24.59375 C25.52118215 26.57445625 26.32050523 28.55484129 27.12060547 30.53491211 C28.74706701 34.56521972 30.36724772 38.59796858 31.98242188 42.6328125 C33.84782409 47.2907991 35.72735968 51.94283554 37.61569214 56.59156799 C38.93148837 59.83160838 40.24249134 63.07357098 41.55206299 66.31613159 C42.16399877 67.8301077 42.77723212 69.34356002 43.39178467 70.85647583 C44.23901792 72.94524795 45.07946705 75.03661663 45.91796875 77.12890625 C46.38992676 78.29945557 46.86188477 79.47000488 47.34814453 80.67602539 C48.34765625 83.53125 48.34765625 83.53125 48.34765625 86.53125 C45.36056165 88.0247973 42.31031145 87.83756228 39.03515625 87.90625 C37.71902344 87.95523437 36.40289063 88.00421875 35.046875 88.0546875 C30.42384246 87.40053084 29.12784216 86.22305484 26.34765625 82.53125 C25.0546875 79.48828125 25.0546875 79.48828125 24.16015625 76.34375 C23.00941813 71.9989908 23.00941813 71.9989908 20.34765625 68.53125 C17.13951999 68.25207705 17.13951999 68.25207705 13.37109375 68.3359375 C12.3432225 68.34018234 12.3432225 68.34018234 11.29458618 68.34451294 C9.10376598 68.35571719 6.91335309 68.38082141 4.72265625 68.40625 C3.23828715 68.41627952 1.75391165 68.42540542 0.26953125 68.43359375 C-3.37122636 68.45565706 -7.01174531 68.49018824 -10.65234375 68.53125 C-13.18782644 73.49174351 -15.47435629 78.42815789 -17.4296875 83.6484375 C-19.16852827 86.32614118 -20.57637734 86.72443914 -23.65234375 87.53125 C-26.29841584 87.66835218 -28.82703388 87.72187972 -31.46484375 87.65625 C-32.15771484 87.64722656 -32.85058594 87.63820313 -33.56445312 87.62890625 C-35.2605677 87.60551157 -36.95650246 87.56964641 -38.65234375 87.53125 C-36.77406247 80.9416659 -34.61204384 74.56139654 -32.0625 68.203125 C-31.72158829 67.34310379 -31.38067657 66.48308258 -31.0294342 65.59700012 C-29.92875976 62.82339652 -28.82208959 60.05223606 -27.71484375 57.28125 C-26.95074112 55.36200446 -26.18690867 53.44265133 -25.42333984 51.52319336 C-23.89352996 47.67917559 -22.36125226 43.83615318 -20.82763672 39.99365234 C-19.15188094 35.7913243 -17.48793051 31.58453442 -15.83293152 27.37399292 C-14.73715467 24.58667405 -13.63681108 21.80117245 -12.53561401 19.01599121 C-12.03406671 17.74455155 -11.53446125 16.472344 -11.03689575 15.19934082 C-10.35448135 13.45488575 -9.66378239 11.71367824 -8.97265625 9.97265625 C-8.59383301 9.01045166 -8.21500977 8.04824707 -7.82470703 7.05688477 C-4.87838082 0.70958266 -4.87838082 0.70958266 0 0 Z M4.34765625 24.53125 C0.66121689 33.0963389 -2.57344466 41.73439546 -5.65234375 50.53125 C0.94765625 50.53125 7.54765625 50.53125 14.34765625 50.53125 C13.60772276 46.83158256 12.83549127 43.90453742 11.5 40.44921875 C11.14228516 39.51787109 10.78457031 38.58652344 10.41601562 37.62695312 C9.85624023 36.18739258 9.85624023 36.18739258 9.28515625 34.71875 C8.90810547 33.73970703 8.53105469 32.76066406 8.14257812 31.75195312 C7.2145003 29.3436499 6.28275509 26.93683386 5.34765625 24.53125 C5.01765625 24.53125 4.68765625 24.53125 4.34765625 24.53125 Z " fill="#DFDFDF" transform="translate(2214.65234375,1351.46875)"/>
<path d="M0 0 C5.61 0 11.22 0 17 0 C17 10.89 17 21.78 17 33 C27.89 33 38.78 33 50 33 C50 22.11 50 11.22 50 0 C55.94 0 61.88 0 68 0 C68 28.38 68 56.76 68 86 C62.39 86 56.78 86 51 86 C51 74.12 51 62.24 51 50 C40.11 50 29.22 50 18 50 C18 61.88 18 73.76 18 86 C12.06 86 6.12 86 0 86 C0 57.62 0 29.24 0 0 Z " fill="#E5E5E5" transform="translate(391,1352)"/>
<path d="M0 0 C4.89308908 6.56662118 8 19.86319867 8 28 C14.49348432 27.94940142 21.0068913 27.64671681 26.06738281 23.171875 C30.0076848 18.76904128 33.351554 13.95931216 36.62304688 9.04785156 C41.72087763 1.46618412 41.72087763 1.46618412 46.75 0.4375 C50.45003178 1.07789012 50.88259657 1.54638451 53.125 4.375 C61.15896512 16.34182239 64.00455546 31.70716084 61.48828125 45.8828125 C61.32714844 46.58148437 61.16601562 47.28015625 61 48 C51.91214618 47.07464102 44.41022764 45.35770116 35.9609375 41.92578125 C32.85357091 40.95421676 31.90233639 40.68649203 29 42 C28.07574219 42.66773438 27.15148438 43.33546875 26.19921875 44.0234375 C22.47157701 46.32647379 20.141772 46.37865576 15.8125 46.625 C11.92337361 47.11024176 9.0690474 47.85955752 6.33300781 50.77832031 C3.68251654 54.4983963 1.5563174 58.43117068 -0.53515625 62.484375 C-4.20869386 69.59527274 -9.27330572 75.78321512 -16.9375 78.75 C-28.39251285 80.13848641 -35.94373863 75.31225782 -45.0625 69 C-45.82546387 68.47760742 -46.58842773 67.95521484 -47.37451172 67.41699219 C-48.08752441 66.90813477 -48.80053711 66.39927734 -49.53515625 65.875 C-50.178479 65.41867187 -50.82180176 64.96234375 -51.48461914 64.4921875 C-53.33098826 62.67407761 -53.79677797 61.57518945 -54 59 C-53.34 58.01 -52.68 57.02 -52 56 C-49.60148674 56.92845674 -47.23567346 57.88855068 -44.91015625 58.98828125 C-37.8546698 62.30496291 -31.98161712 63.77143652 -24.27734375 61.875 C-20.95245141 60.59751135 -18.43553718 58.61961874 -15.7265625 56.33984375 C-14 55 -14 55 -11 54 C-9.89163577 52.11683841 -9.89163577 52.11683841 -9 50 C-8.34 49.01 -7.68 48.02 -7 47 C-7.59167969 46.91363281 -8.18335938 46.82726563 -8.79296875 46.73828125 C-14.30902423 45.7574492 -17.50058301 44.66588932 -21 40 C-24.90487448 30.52631827 -22.60008017 20.04054731 -19.1796875 10.703125 C-17.06331633 5.85369173 -14.32388279 -0.39961199 -9.3125 -2.8125 C-5.64782949 -3.10963545 -2.89971004 -2.14592125 0 0 Z M-11 18 C-11.66 19.65 -12.32 21.3 -13 23 C-9.92000054 26.67230705 -7.7517398 27.56802365 -3 28 C-3.4979837 24.26512223 -3.87491756 22.18762365 -6 19 C-8.56282742 18.27034634 -8.56282742 18.27034634 -11 18 Z M40 19 C38.515 21.475 38.515 21.475 37 24 C40.63 25.32 44.26 26.64 48 28 C46.82547148 23.59373948 46.82547148 23.59373948 44 20.125 C42.09192398 18.83657959 42.09192398 18.83657959 40 19 Z " fill="#D7D7D7" transform="translate(2038,1113)"/>
<path d="M0 0 C2.49324189 2.20770302 3.60687804 4.02684666 4.625 7.1875 C4.86476563 7.90292969 5.10453125 8.61835937 5.3515625 9.35546875 C7.69471446 18.91157645 7.31799185 28.89701533 7.51757812 38.671875 C7.61862585 50.50195362 7.61862585 50.50195362 10 62 C12.91002816 64.70261603 14.83267739 65.37231712 18.76855469 65.34057617 C19.70922791 65.34034958 20.64990112 65.34012299 21.61907959 65.33988953 C23.13021332 65.31666374 23.13021332 65.31666374 24.671875 65.29296875 C26.22820648 65.28660149 26.22820648 65.28660149 27.815979 65.28010559 C31.12758408 65.26332223 34.43857907 65.22566992 37.75 65.1875 C39.99608496 65.17245275 42.24217946 65.15876442 44.48828125 65.14648438 C49.99239541 65.11341986 55.49615412 65.0632236 61 65 C59.4305457 63.54692033 57.85516691 62.10023803 56.27734375 60.65625 C55.40070068 59.84994141 54.52405762 59.04363281 53.62084961 58.21289062 C46.77784716 52.4350635 39.76446115 51.32764341 31 51 C31.59768082 44.72435139 33.91093718 40.84036487 38.625 36.6875 C43.32245519 33.34983447 47.35359036 33.44202147 53 34 C62.11407415 36.37239009 68.59033767 45.03142607 74.3125 52 C78.34646994 56.75328024 83.32671266 60.29796027 88.3046875 63.99609375 C91 66 91 66 92 67 C92.08651611 68.41570123 92.10704904 69.835595 92.09765625 71.25390625 C92.09282227 72.53491211 92.09282227 72.53491211 92.08789062 73.84179688 C92.07532227 75.18854492 92.07532227 75.18854492 92.0625 76.5625 C92.05798828 77.46419922 92.05347656 78.36589844 92.04882812 79.29492188 C92.03700225 81.53001314 92.0205222 83.76497437 92 86 C81.55984969 86.06960416 71.11975487 86.12286418 60.67941952 86.15543652 C55.83119937 86.17107202 50.98313835 86.19227165 46.13500977 86.22631836 C41.45361842 86.25898725 36.77237983 86.27686892 32.09088326 86.28463173 C30.30755777 86.29016173 28.52424035 86.30096048 26.74098015 86.31719017 C24.2372132 86.33906473 21.73407221 86.34196277 19.23022461 86.34057617 C18.49798172 86.351362 17.76573883 86.36214783 17.01130676 86.3732605 C11.87473257 86.34261214 8.47737556 85.33866301 4 83 C-3.5381076 74.85069449 -2.34971501 61.37975561 -2.5625 51 C-1.86751122 36.16121414 -1.86751122 36.16121414 -5.625 22.375 C-7.83248698 18.56206795 -6.98192471 15.16990692 -6 11 C-4.88462465 7.56173424 -3.68417674 4.2031135 -2 1 C-1.34 0.67 -0.68 0.34 0 0 Z " fill="#DCDCDC" transform="translate(1399,1075)"/>
<path d="M0 0 C7.46226182 5.43679076 11.44374489 11.42156444 14.1875 20.25 C14.1875 20.91 14.1875 21.57 14.1875 22.25 C8.2475 23.24 2.3075 24.23 -3.8125 25.25 C-4.67875 23.8475 -5.545 22.445 -6.4375 21 C-9.17632741 16.9741773 -11.21949382 14.20628041 -15.8125 12.25 C-22.46375661 11.4621101 -28.04001688 11.54969031 -33.8125 15.25 C-34.8025 15.58 -35.7925 15.91 -36.8125 16.25 C-43.12334816 26.27311178 -42.67019653 40.15128481 -40.6015625 51.36328125 C-39.05464402 57.02255232 -36.8225328 60.89541268 -31.9375 64.1875 C-25.71745538 66.30231517 -21.11110632 66.69709266 -14.95703125 64.390625 C-8.90736752 61.17295321 -6.08879547 55.44658212 -3.8125 49.25 C2.23551071 49.79981916 7.49351106 51.15429574 13.1875 53.25 C12.96104705 62.14342475 9.85512336 67.56828837 3.875 74 C-3.40707496 80.88972178 -12.33316169 83.15264506 -22.1875 83.5625 C-33.0396103 83.23712809 -43.2856835 79.70032077 -51.0703125 72.0234375 C-59.97713087 61.67049364 -62.59177116 49.63747898 -61.8125 36.25 C-60.63265155 23.37621063 -57.68927604 12.60052592 -48 3.55859375 C-34.37230604 -7.40400684 -15.00771878 -9.40182047 0 0 Z " fill="#DBDBDB" transform="translate(1610.8125,1355.75)"/>
<path d="M0 0 C9.44174973 8.97452913 8.11604005 21.47316133 8.4375 33.625 C8.56824691 48.44589617 8.56824691 48.44589617 11 63 C14.72066472 65.48044315 17.86540474 65.44381173 22.1875 65.625 C22.93708984 65.66367188 23.68667969 65.70234375 24.45898438 65.7421875 C26.30559199 65.83628216 28.1527619 65.91922319 30 66 C29.71125 65.32195312 29.4225 64.64390625 29.125 63.9453125 C25.9824797 56.06718869 24.48544132 49.13769439 27.0625 40.875 C30.24861831 33.48559884 35.83253654 28.38087899 43 25 C50.47131161 22.66718541 58.98632611 23.02977256 65.95703125 26.59765625 C70.39450673 29.64364802 74.36125917 33.44140747 75.6875 38.75390625 C75.790625 39.49511719 75.89375 40.23632812 76 41 C69.48320413 42.12790698 69.48320413 42.12790698 67.2734375 41.54296875 C57.96751612 39.32042052 46.76242842 40.38307623 38 44 C38.29505988 47.3813862 38.73433254 48.73576086 41.1796875 51.16796875 C42.51386719 52.16763672 42.51386719 52.16763672 43.875 53.1875 C44.75929688 53.86167969 45.64359375 54.53585937 46.5546875 55.23046875 C50.96801761 58.42414054 53.58140619 59.78282965 59 59 C63.29357232 57.83210706 67.48369851 56.39219503 71.6875 54.9375 C73.91727918 54.16619274 76.15025255 53.40404119 78.38671875 52.65234375 C79.36858154 52.31195068 80.35044434 51.97155762 81.36206055 51.62084961 C84.06502406 50.98469633 85.42655293 51.05862506 88 52 C86.99434 55.11700774 85.93950639 58.21514422 84.875 61.3125 C84.59140625 62.19357422 84.3078125 63.07464844 84.015625 63.98242188 C83.71914062 64.82998047 83.42265625 65.67753906 83.1171875 66.55078125 C82.72442627 67.72120972 82.72442627 67.72120972 82.32373047 68.9152832 C79.00711592 74.13855351 71.49088938 75.14953624 65.83984375 76.6640625 C64.97235001 76.90160248 64.10485626 77.13914246 63.21107483 77.38388062 C61.38557505 77.88255343 59.55925683 78.3782388 57.73217773 78.87109375 C54.9414497 79.62393451 52.15317468 80.38534472 49.36523438 81.1484375 C47.5860733 81.63331107 45.80678076 82.11770255 44.02734375 82.6015625 C43.19702133 82.82760162 42.36669891 83.05364075 41.51121521 83.28652954 C34.34166648 85.21841924 27.92791618 86.18181247 20.5 86.1875 C19.65824219 86.19974609 18.81648438 86.21199219 17.94921875 86.22460938 C12.14379188 86.23832298 8.09685761 86.08201261 3.79296875 81.80859375 C-3.30797722 70.68532545 -2.05762274 52.80208084 -1.98046875 40.1796875 C-2.00036085 36.94125431 -2.1109798 33.73222595 -2.3125 30.5 C-2.37050781 29.5615625 -2.42851563 28.623125 -2.48828125 27.65625 C-3.0784738 24.5926551 -4.39917074 22.65231229 -6 20 C-6.86479477 12.83841835 -3.13471644 6.18846235 0 0 Z " fill="#D7D7D7" transform="translate(1536,1075)"/>
<path d="M0 0 C0.74507812 0.05671875 1.49015625 0.1134375 2.2578125 0.171875 C4.08935108 0.31276258 5.91981352 0.46751884 7.75 0.625 C7.08987191 5.75876536 5.58821933 10.29963198 3.828125 15.1328125 C3.38333801 16.37343193 3.38333801 16.37343193 2.92956543 17.63911438 C1.95815483 20.34461371 0.97939672 23.0473824 0 25.75 C-0.67579539 27.62365682 -1.35124746 29.49743751 -2.02636719 31.37133789 C-3.06405736 34.25055427 -4.10244261 37.12950919 -5.14312744 40.00764465 C-7.15377851 45.57012399 -9.14664347 51.13839948 -11.11737061 56.71514893 C-12.29446629 60.04549719 -13.47794576 63.37355777 -14.66223145 66.70135498 C-15.21865995 68.26957855 -15.77231232 69.83879003 -16.32312012 71.40899658 C-17.08778639 73.58673957 -17.86291735 75.76048032 -18.640625 77.93359375 C-19.07407227 79.15876709 -19.50751953 80.38394043 -19.95410156 81.64624023 C-21.1416853 84.37602719 -21.84246351 85.92271285 -24.25 87.625 C-26.990798 87.92399615 -29.45316327 88.04406272 -32.1875 88 C-32.90357422 88.01160156 -33.61964844 88.02320313 -34.35742188 88.03515625 C-38.7276833 88.01085452 -41.1659606 87.74033964 -44.25 84.625 C-45.40178184 81.97890448 -46.33985832 79.47071958 -47.2109375 76.734375 C-47.47837769 75.93353989 -47.74581787 75.13270477 -48.0213623 74.30760193 C-48.90105206 71.66715757 -49.76274844 69.02118452 -50.625 66.375 C-51.85805169 62.65536469 -53.10073296 58.93897146 -54.34375 55.22265625 C-54.661091 54.27002396 -54.97843201 53.31739166 -55.3053894 52.33589172 C-57.54247157 45.64800013 -59.87652206 39.00045265 -62.28125 32.37109375 C-62.76798691 31.02880203 -62.76798691 31.02880203 -63.26455688 29.65939331 C-64.52563959 26.18971687 -65.79043346 22.72148066 -67.06561279 19.25695801 C-67.94206491 16.8749558 -68.81126586 14.49040772 -69.6796875 12.10546875 C-70.07238831 11.05195473 -70.07238831 11.05195473 -70.47302246 9.97715759 C-71.69526182 6.60719667 -72.25 4.26684624 -72.25 0.625 C-65.98 0.625 -59.71 0.625 -53.25 0.625 C-48.18810409 12.06331518 -44.39859939 23.87673804 -40.5 35.75 C-39.47533497 38.85909623 -38.44935664 41.96775086 -37.42181396 45.07589722 C-36.78663584 46.99838062 -36.15330989 48.92147717 -35.52203369 50.84524536 C-35.2379364 51.70729584 -34.95383911 52.56934631 -34.66113281 53.45751953 C-34.41196106 54.21630402 -34.16278931 54.9750885 -33.90606689 55.75686646 C-33.27409294 57.68146578 -33.27409294 57.68146578 -32.25 59.625 C-29.32186332 52.58602492 -26.81838354 45.47902867 -24.5 38.21875 C-23.80279162 36.07268643 -23.10485414 33.92685962 -22.40625 31.78125 C-21.31964635 28.43451075 -20.23772655 25.08654024 -19.16796875 21.734375 C-18.12559119 18.47457609 -17.06449345 15.2213829 -16 11.96875 C-15.68321289 10.96050171 -15.36642578 9.95225342 -15.04003906 8.91345215 C-14.73291992 7.98488403 -14.42580078 7.05631592 -14.109375 6.09960938 C-13.71443848 4.87244202 -13.71443848 4.87244202 -13.31152344 3.6204834 C-10.5199246 -1.6272473 -5.14163125 -0.45420771 0 0 Z " fill="#DCDCDC" transform="translate(1503.25,1351.375)"/>
<path d="M0 0 C0.99 0.33 1.98 0.66 3 1 C3.10022461 1.63164063 3.20044922 2.26328125 3.30371094 2.9140625 C4.33792177 9.42419692 5.38267514 15.93257883 6.43115234 22.44042969 C6.98052613 25.87814203 7.51675997 29.31768673 8.05078125 32.7578125 C8.38768801 34.88026119 8.72491514 37.00265906 9.0625 39.125 C9.21235352 40.11242188 9.36220703 41.09984375 9.51660156 42.1171875 C10.38310362 47.49061356 11.38799246 52.19286393 14 57 C17.79876271 58.26625424 21.42421926 58.23298547 25.38671875 58.31640625 C26.20372757 58.33718735 27.02073639 58.35796844 27.86250305 58.37937927 C30.47075034 58.44473079 33.07909775 58.50369273 35.6875 58.5625 C37.45639054 58.60569892 39.22527097 58.64931365 40.99414062 58.69335938 C45.32932463 58.80039743 49.66460929 58.90170544 54 59 C53.49033691 58.04593262 52.98067383 57.09186523 52.45556641 56.10888672 C51.79530143 54.84113106 51.13566643 53.57304717 50.4765625 52.3046875 C49.97104858 51.36435669 49.97104858 51.36435669 49.45532227 50.4050293 C47.57287603 46.74777352 46.50401281 44.20486255 47.375 40.125 C48.109375 38.04296875 48.109375 38.04296875 49 36 C49.54185309 34.47923308 50.08352694 32.95840227 50.625 31.4375 C51.305625 29.7359375 51.305625 29.7359375 52 28 C57.58552325 32.9816829 60.49624261 38.83620872 61.22119141 46.26733398 C61.36441259 48.99041383 61.50026486 51.71350458 61.625 54.4375 C61.6765625 55.35982422 61.728125 56.28214844 61.78125 57.23242188 C62.12539748 64.55567773 61.69410579 71.70604406 61 79 C54.55883383 79.07622102 48.1177845 79.12867158 41.67626953 79.16479492 C39.48612115 79.17985806 37.29600281 79.20031259 35.10595703 79.22631836 C31.95337497 79.26280989 28.80119263 79.27975139 25.6484375 79.29296875 C24.67321136 79.30845261 23.69798523 79.32393646 22.69320679 79.33988953 C16.16563806 79.34149637 11.63444031 78.59240137 6.796875 73.83203125 C4.52860478 70.25704014 3.40087885 66.73729067 2.25 62.6875 C2.02957031 61.94693359 1.80914062 61.20636719 1.58203125 60.44335938 C1.04444146 58.63191553 0.52078555 56.81634633 0 55 C-0.37511719 55.48210937 -0.75023437 55.96421875 -1.13671875 56.4609375 C-6.53978952 63.12971503 -6.53978952 63.12971503 -11 64 C-17.46971742 63.60389485 -23.74860329 61.63213806 -30 60 C-29.57315993 47.62163788 -23.95072392 35.5718573 -15 27 C-13.28431375 26.01773688 -11.5546611 25.05950246 -9.8125 24.125 C-4.17018836 20.58660117 -3.29884892 15.71596182 -1.875 9.5625 C-1.18844021 6.38436138 -0.55767333 3.20322122 0 0 Z M-8.0625 35.8125 C-8.77535156 36.33457031 -9.48820312 36.85664062 -10.22265625 37.39453125 C-12.26487604 38.97458935 -12.26487604 38.97458935 -13 42 C-10.83075548 43.32006573 -10.83075548 43.32006573 -8 44 C-4.19978107 42.48529348 -4.19978107 42.48529348 -1 40 C-1.28730055 37.66055264 -1.61936779 35.3260857 -2 33 C-4.76622859 33 -5.86263146 34.17158172 -8.0625 35.8125 Z " fill="#D3D3D3" transform="translate(197,1082)"/>
<path d="M0 0 C7.81015005 7.3753582 8.09018629 16.48634209 8.46484375 26.59765625 C8.54332329 28.4694135 8.62210856 30.34115795 8.70117188 32.21289062 C8.82097457 35.14448968 8.93801858 38.07613108 9.04956055 41.00805664 C9.15929075 43.85080689 9.2800635 46.69292198 9.40234375 49.53515625 C9.43263168 50.40922623 9.46291962 51.2832962 9.49412537 52.18385315 C9.74281164 58.33462142 9.74281164 58.33462142 12 64 C16.1098409 65.36994697 19.94585155 65.18423433 24.25 65.1875 C25.08402344 65.19974609 25.91804688 65.21199219 26.77734375 65.22460938 C31.90817706 65.2366914 36.17955374 64.81075738 41 63 C42.9969132 61.0030868 44.42218209 59.29372335 46 57 C46.54527344 56.21753906 47.09054687 55.43507813 47.65234375 54.62890625 C48.84592536 52.91296944 50.03732087 51.19551001 51.2265625 49.4765625 C57.46191646 40.76904177 57.46191646 40.76904177 61 39 C63.8125 38.5625 63.8125 38.5625 67 39 C75.22989939 46.22625312 78.07101596 58.48920918 79 69 C79.26211459 75.12520401 79.38101686 81.00086278 78 87 C76.34005929 86.59471577 74.68032166 86.18858579 73.02148438 85.77880859 C71.57851518 85.42331823 70.13447538 85.07214835 68.68945312 84.72509766 C65.09180197 83.84460328 61.5844772 82.8978588 58.1015625 81.6328125 C51.82121252 79.14025456 51.82121252 79.14025456 45.45703125 80.05078125 C43.30034426 81.62149264 43.30034426 81.62149264 41.55078125 83.44921875 C38.91598147 86.08401853 36.21623395 86.1275595 32.68359375 86.1328125 C31.84127197 86.13514893 30.9989502 86.13748535 30.13110352 86.13989258 C25.75345607 86.11568914 21.37706629 86.07677479 17 86 C15.33324219 85.97486328 15.33324219 85.97486328 13.6328125 85.94921875 C12.78460937 85.90410156 11.93640625 85.85898438 11.0625 85.8125 C10.37285156 85.77769531 9.68320313 85.74289062 8.97265625 85.70703125 C5.7541532 84.55346877 4.14981187 82.60972187 2 80 C-2.28686419 68.39225859 -1.51203479 54.81140265 -1.7890625 42.63671875 C-1.77216003 30.74420137 -1.77216003 30.74420137 -6 20 C-6.47544426 14.5022572 -5.42933193 10.97177493 -3 6.0625 C-2.443125 4.91910156 -1.88625 3.77570313 -1.3125 2.59765625 C-0.6628125 1.31181641 -0.6628125 1.31181641 0 0 Z M57 57 C55.515 59.475 55.515 59.475 54 62 C57.63 63.32 61.26 64.64 65 66 C63.82547148 61.59373948 63.82547148 61.59373948 61 58.125 C59.09192398 56.83657959 59.09192398 56.83657959 57 57 Z " fill="#D7D7D7" transform="translate(1027,1075)"/>
<path d="M0 0 C7.2874412 -1.85058504 14.94220844 -3.14003996 22 0 C28.91977836 7.01750817 33.21514801 16.28573928 37.44799805 25.08911133 C38.78331486 27.5935918 39.86049283 29.18816147 42 31 C42.40839111 30.26885986 42.81678223 29.53771973 43.23754883 28.78442383 C44.76329278 26.05376892 46.28973854 23.32350786 47.81665039 20.59350586 C48.79822596 18.83802811 49.77900173 17.08210323 50.75976562 15.32617188 C51.69272461 13.65844727 51.69272461 13.65844727 52.64453125 11.95703125 C53.21534424 10.93585205 53.78615723 9.91467285 54.37426758 8.86254883 C54.91075928 7.91790771 55.44725098 6.9732666 56 6 C56.52295654 5.07276123 57.04591309 4.14552246 57.5847168 3.19018555 C59 1 59 1 61 0 C62.52148326 -0.08372659 64.04655778 -0.10730027 65.5703125 -0.09765625 C66.46621094 -0.09443359 67.36210938 -0.09121094 68.28515625 -0.08789062 C69.69087891 -0.07532227 69.69087891 -0.07532227 71.125 -0.0625 C72.06988281 -0.05798828 73.01476563 -0.05347656 73.98828125 -0.04882812 C76.32558387 -0.03702357 78.66276061 -0.02055759 81 0 C79.74150402 3.34426529 78.31506127 6.31815321 76.41796875 9.34375 C75.64706909 10.58016235 75.64706909 10.58016235 74.8605957 11.84155273 C74.30847412 12.71884033 73.75635254 13.59612793 73.1875 14.5 C72.61797607 15.41402588 72.04845215 16.32805176 71.46166992 17.26977539 C68.42899703 22.13559705 65.37687178 26.98900422 62.3203125 31.83984375 C61.7322583 32.77828125 61.1442041 33.71671875 60.53833008 34.68359375 C59.4108909 36.48264793 58.27813589 38.27838466 57.1394043 40.0703125 C56.62547119 40.89144531 56.11153809 41.71257812 55.58203125 42.55859375 C55.13061768 43.27329834 54.6792041 43.98800293 54.21411133 44.72436523 C51.40241237 49.99439259 50.68459131 54.90429497 50.5859375 60.8046875 C50.56657135 61.5286673 50.5472052 62.25264709 50.5272522 62.99856567 C50.46790114 65.29059398 50.42125122 67.58267374 50.375 69.875 C50.33677913 71.43752081 50.29772506 73.00002148 50.2578125 74.5625 C50.16223692 78.37483465 50.07804394 82.1872678 50 86 C47.02077407 86.02683987 44.04178705 86.04676037 41.0625 86.0625 C39.78729492 86.07506836 39.78729492 86.07506836 38.48632812 86.08789062 C37.67744141 86.09111328 36.86855469 86.09433594 36.03515625 86.09765625 C35.2862915 86.10289307 34.53742676 86.10812988 33.76586914 86.11352539 C32 86 32 86 31 85 C30.961183 83.07846366 30.98862053 81.15553479 31.04296875 79.234375 C31.06423828 78.03296875 31.08550781 76.8315625 31.10742188 75.59375 C31.1598369 73.07782863 31.22446447 70.56212479 31.30273438 68.046875 C31.48852428 55.05534372 28.22066669 44.71453766 21 34 C20.26652344 32.90429688 19.53304688 31.80859375 18.77734375 30.6796875 C17.53585234 28.82546001 16.29353786 26.97184941 15.046875 25.12109375 C11.52673841 19.86731632 8.17506877 14.51935351 4.875 9.125 C4.38942627 8.33351563 3.90385254 7.54203125 3.40356445 6.7265625 C0 1.12808399 0 1.12808399 0 0 Z " fill="#DADADA" transform="translate(1976,1352)"/>
<path d="M0 0 C3.09433877 1.342585 3.91685615 1.86340653 5.75 4.875 C8.31252991 8.43406932 10.37564455 9.51582145 14.29296875 11.23828125 C16 12 16 12 17 13 C16.93522667 14.91964594 16.7976334 16.83703533 16.625 18.75 C16.48964844 20.32007813 16.48964844 20.32007813 16.3515625 21.921875 C16.03847028 24.66317129 15.5886275 27.30628093 15 30 C13.68 30 12.36 30 11 30 C10.773125 31.299375 10.54625 32.59875 10.3125 33.9375 C9.17720255 39.73000303 7.47252529 45.31692246 5.67700195 50.93334961 C4.39843782 55.06802638 3.60518164 58.61816344 4 63 C4.474375 63.845625 4.94875 64.69125 5.4375 65.5625 C8.78162968 72.9195853 8.58522578 81.41798657 6.765625 89.1953125 C5.51991958 92.13161814 3.89939921 93.58489267 1.01953125 94.9140625 C-7.75457932 97.74041316 -15.84497093 98.12583567 -25 98 C-26.29941024 79.56836555 -26.29941024 79.56836555 -23.5 74.03515625 C-21.44986254 72.01304801 -19.44110407 70.52156655 -17 69 C-15.49576851 67.83879427 -13.99553122 66.67238965 -12.5 65.5 C-11.33818377 64.6599175 -10.17337584 63.82385963 -9 63 C-10.77590587 58.80718082 -13.62512115 55.46855715 -16.4375 51.9375 C-16.92798828 51.31294922 -17.41847656 50.68839844 -17.92382812 50.04492188 C-20.16681249 47.20865149 -22.40440848 44.52442743 -25 42 C-25.33 42.33 -25.66 42.66 -26 43 C-31.9168175 42.7633273 -35.81057797 41.05918093 -40 37 C-42.98081515 32.13133525 -44.13389872 27.88820093 -44.09765625 22.234375 C-44.09443359 21.34492187 -44.09121094 20.45546875 -44.08789062 19.5390625 C-44.07532227 18.15847656 -44.07532227 18.15847656 -44.0625 16.75 C-44.05798828 15.81414062 -44.05347656 14.87828125 -44.04882812 13.9140625 C-44.03706918 11.60930959 -44.02063426 9.30468773 -44 7 C-41 6 -41 6 -39.2734375 6.828125 C-33.71509849 10.9911608 -29.59355485 15.84278653 -25.33935547 21.30322266 C-23.84560917 23.19559173 -22.31882384 25.05781621 -20.78515625 26.91796875 C-15.33638857 33.53376967 -9.99429006 40.11245634 -5.26953125 47.27734375 C-4.09790488 49.14050934 -4.09790488 49.14050934 -2 50 C1.34168598 35.88037 1.34168598 35.88037 -1.49609375 22.2734375 C-1.99238281 21.52320313 -2.48867187 20.77296875 -3 20 C-3.85340383 13.17276935 -1.6639544 6.58648617 0 0 Z M-4 70 C-6.97 72.475 -6.97 72.475 -10 75 C-7.87060172 76.35026777 -7.87060172 76.35026777 -4.875 75.0625 C-3.451875 74.5365625 -3.451875 74.5365625 -2 74 C-2.66 72.68 -3.32 71.36 -4 70 Z " fill="#D2D2D2" transform="translate(1683,1074)"/>
<path d="M0 0 C22.77 0 45.54 0 69 0 C69 4.95 69 9.9 69 15 C60.75 15 52.5 15 44 15 C44 38.43 44 61.86 44 86 C37.73 86 31.46 86 25 86 C25 62.9 25 39.8 25 16 C16.75 16 8.5 16 0 16 C0 10.72 0 5.44 0 0 Z " fill="#E1E1E1" transform="translate(995,1352)"/>
<path d="M0 0 C5.94 0 11.88 0 18 0 C18 23.1 18 46.2 18 70 C32.19 70 46.38 70 61 70 C61 75.28 61 80.56 61 86 C40.87 86 20.74 86 0 86 C0 57.62 0 29.24 0 0 Z " fill="#DDDDDD" transform="translate(938,1352)"/>
<path d="M0 0 C1.65 0.99 3.3 1.98 5 3 C4.7834375 3.67804688 4.566875 4.35609375 4.34375 5.0546875 C2.48233616 11.27663562 0.72249088 17.49525175 2 24 C4.52676039 27.34625024 6.03933542 28.67977847 10 30 C12.62721314 30.22344001 15.23514766 30.3974642 17.8671875 30.52734375 C19.05391556 30.58933205 19.05391556 30.58933205 20.26461792 30.65257263 C29.8796199 31.12981301 39.50127249 31.34748876 49.125 31.5625 C50.97005826 31.60585773 52.81511041 31.64947632 54.66015625 31.69335938 C59.10670651 31.7985644 63.55332317 31.90029441 68 32 C67.57412598 31.17508057 67.14825195 30.35016113 66.70947266 29.50024414 C65.88261963 27.87783813 65.88261963 27.87783813 65.0390625 26.22265625 C64.21462646 24.6140271 64.21462646 24.6140271 63.37353516 22.97290039 C60.61868918 17.01026985 61.90432867 12.98767146 64 7.0625 C64.65575947 5.37073163 65.31880928 3.6816896 66 2 C66.99 2 67.98 2 69 2 C76.8442623 16.34122764 78.70180666 32.84920017 76 49 C75.67 49.99 75.34 50.98 75 52 C66.69781725 52.09309675 58.39585628 52.16396427 50.09327888 52.20724869 C46.23712721 52.22803376 42.38133531 52.25618242 38.52539062 52.30175781 C34.79709259 52.34554361 31.06913839 52.36920521 27.34060287 52.37950897 C25.92535879 52.3868422 24.51013136 52.40116079 23.09503555 52.42292023 C13.25504558 52.56806907 4.59917473 52.2077556 -2.9375 45.3125 C-8.26082876 36.76291139 -9.35929427 28.30154882 -7.23828125 18.46875 C-5.46432386 11.90580884 -3.32127027 5.93083977 0 0 Z " fill="#D9D9D9" transform="translate(944,1109)"/>
<path d="M0 0 C1.86328125 0.22265625 1.86328125 0.22265625 4 1 C5.23046875 2.93359375 5.23046875 2.93359375 6.1875 5.4375 C6.51105469 6.24058594 6.83460937 7.04367187 7.16796875 7.87109375 C9.42461669 16.35736135 9.15546841 25.21845615 9.125 33.9375 C9.12886719 35.04029297 9.13273437 36.14308594 9.13671875 37.27929688 C9.11083701 59.21406952 9.11083701 59.21406952 3.66796875 65.55078125 C-4.9054805 73.9573507 -18.01724908 75.32364074 -29.4765625 75.21875 C-39.72925049 74.58221948 -48.01775962 72.28639042 -55.25 64.8125 C-60.8209019 57.88177166 -60.34198625 50.04415705 -59.5234375 41.53125 C-57.74961074 29.56453812 -51.7851416 19.43303313 -46 9 C-44.35 9.33 -42.7 9.66 -41 10 C-41.52246983 15.59478114 -43.0736283 19.78117661 -45.5 24.8125 C-49.98526963 34.54855827 -49.98526963 34.54855827 -49.4296875 45.01953125 C-47.41638415 49.3272749 -44.4984944 51.3692839 -40.203125 53.22265625 C-28.35858706 57.40184605 -18.70007117 56.4952905 -7 52 C-3.05363648 50.08571919 -0.68694434 48.11285988 1 44 C2.06180132 37.9309672 0.82541086 33.06328152 -1.5 27.4375 C-5.77332728 17.01593832 -3.93114889 10.37191514 0 0 Z " fill="#CCCCCC" transform="translate(1382,1116)"/>
<path d="M0 0 C5.94 0 11.88 0 18 0 C18 28.38 18 56.76 18 86 C12.06 86 6.12 86 0 86 C0 57.62 0 29.24 0 0 Z " fill="#DDDDDD" transform="translate(2152,1352)"/>
<path d="M0 0 C5.94 0 11.88 0 18 0 C18 28.38 18 56.76 18 86 C12.06 86 6.12 86 0 86 C0 57.62 0 29.24 0 0 Z " fill="#DDDDDD" transform="translate(1519,1352)"/>
<path d="M0 0 C6.68056982 5.93828429 9.35648064 12.08768591 10 21 C10.20963284 25.81315546 10.27598713 30.62023538 10.3125 35.4375 C10.34150391 36.70916016 10.37050781 37.98082031 10.40039062 39.29101562 C10.48247645 51.47128853 7.07952679 59.00772333 -1 68 C-5.97708646 72.87296331 -10.20097358 76.25784956 -17.375 76.5625 C-28.94121021 76.36502812 -39.08676631 68.75680619 -48 62 C-47.01 59.03 -47.01 59.03 -46 56 C-42.63074034 56.42115746 -40.08061407 57.41293875 -37.125 59 C-32.07132601 61.58846717 -28.13862117 62.66102836 -22.5625 60.9375 C-12.53025453 55.93249949 -1.28430232 46.43320134 3 36 C3 31.39164902 1.80071493 28.51173384 -0.5625 24.6875 C-4.75052129 17.55818053 -3.37090542 10.45218655 -1.53515625 2.71484375 C-1 1 -1 1 0 0 Z " fill="#C6C6C6" transform="translate(306,1115)"/>
<path d="M0 0 C2.32878395 3.49317592 2.71038428 6.50721597 3.25390625 10.5625 C3.35968491 11.30902832 3.46546356 12.05555664 3.57444763 12.82470703 C3.79730045 14.407862 4.01645047 15.99154194 4.23217773 17.57568359 C4.55764918 19.96439863 4.89394351 22.35137833 5.23242188 24.73828125 C12.21435277 74.45102195 12.21435277 74.45102195 3 89 C0.828125 90.34375 0.828125 90.34375 -1 91 C-3.17097141 87.49517354 -3.18629687 84.81617614 -3.0546875 80.7421875 C-3.02761719 79.48913818 -3.00054688 78.23608887 -2.97265625 76.94506836 C-2.95605957 76.28151337 -2.93946289 75.61795837 -2.92236328 74.93429565 C-2.66450614 63.72299274 -3.07969852 53.02537487 -5 41.9375 C-7.62221152 26.65522832 -9.11872442 13.67808663 0 0 Z " fill="#C3C3C3" transform="translate(1718,1075)"/>
<path d="M0 0 C0.99 0 1.98 0 3 0 C14.47080908 68.23819131 14.47080908 68.23819131 4 88 C2.33203125 89.8671875 2.33203125 89.8671875 1 91 C-1.8113315 87.03374313 -2.33181434 84.47056922 -2.15234375 79.64453125 C-2.12205078 78.39470459 -2.09175781 77.14487793 -2.06054688 75.85717773 C-2.03984131 75.19773163 -2.01913574 74.53828552 -1.99780273 73.8588562 C-1.66807863 62.66976229 -2.07748913 52.00298169 -4 40.9375 C-6.6438214 25.53486946 -7.21899118 14.43798236 0 0 Z " fill="#C3C3C3" transform="translate(882,1076)"/>
<path d="M0 0 C11.88 0 23.76 0 36 0 C36 5.94 36 11.88 36 18 C24.12 18 12.24 18 0 18 C0 12.06 0 6.12 0 0 Z " fill="#D6D6D6" transform="translate(499,1135)"/>
<path d="M0 0 C3.29680965 0.65784963 5.84117922 1.89420573 8.75 3.5625 C9.54921875 4.01753906 10.3484375 4.47257812 11.171875 4.94140625 C11.77515625 5.29074219 12.3784375 5.64007812 13 6 C12.52412884 12.02770138 9.80277043 16.76678289 7 22 C3.46157845 20.8741386 0.33810482 19.66905241 -3 18 C-4.65 21.3 -6.3 24.6 -8 28 C-11.54997152 26.58001139 -14.18729934 25.3878411 -17.3125 23.375 C-18.00988281 22.92898438 -18.70726562 22.48296875 -19.42578125 22.0234375 C-19.94527344 21.68570312 -20.46476563 21.34796875 -21 21 C-20.39644592 17.14974121 -19.23227397 14.13898841 -17.4375 10.6875 C-16.98246094 9.80449219 -16.52742187 8.92148438 -16.05859375 8.01171875 C-15.53458984 7.01591797 -15.53458984 7.01591797 -15 6 C-10.88295306 6.72241198 -7.69512628 8.02353711 -4 10 C-3.71125 9.0925 -3.4225 8.185 -3.125 7.25 C-2.23468224 4.67797092 -1.28505587 2.38653234 0 0 Z " fill="#BABABA" transform="translate(983,1087)"/>
<path d="M0 0 C3.29680965 0.65784963 5.84117922 1.89420573 8.75 3.5625 C9.54921875 4.01753906 10.3484375 4.47257812 11.171875 4.94140625 C11.77515625 5.29074219 12.3784375 5.64007812 13 6 C12.52412884 12.02770138 9.80277043 16.76678289 7 22 C2 20 2 20 -3 18 C-4.65 21.3 -6.3 24.6 -8 28 C-11.54997152 26.58001139 -14.18729934 25.3878411 -17.3125 23.375 C-18.00988281 22.92898438 -18.70726562 22.48296875 -19.42578125 22.0234375 C-19.94527344 21.68570312 -20.46476563 21.34796875 -21 21 C-20.39644592 17.14974121 -19.23227397 14.13898841 -17.4375 10.6875 C-16.98246094 9.80449219 -16.52742187 8.92148438 -16.05859375 8.01171875 C-15.53458984 7.01591797 -15.53458984 7.01591797 -15 6 C-10.88295306 6.72241198 -7.69512628 8.02353711 -4 10 C-3.71125 9.0925 -3.4225 8.185 -3.125 7.25 C-2.23468224 4.67797092 -1.28505587 2.38653234 0 0 Z " fill="#BBBBBB" transform="translate(650,1166)"/>
<path d="M0 0 C10.89 0 21.78 0 33 0 C33 4.95 33 9.9 33 15 C22.11 15 11.22 15 0 15 C0 10.05 0 5.1 0 0 Z " fill="#CFCFCF" transform="translate(1830,1400)"/>
<path d="M0 0 C5.30899945 0.97993214 9.47106186 4.19920931 14 7 C10.535 14.425 10.535 14.425 7 22 C2.05 20.02 2.05 20.02 -3 18 C-4.65 21.3 -6.3 24.6 -8 28 C-11.54997152 26.58001139 -14.18729934 25.3878411 -17.3125 23.375 C-18.00988281 22.92898438 -18.70726562 22.48296875 -19.42578125 22.0234375 C-19.94527344 21.68570312 -20.46476563 21.34796875 -21 21 C-20.39644592 17.14974121 -19.23227397 14.13898841 -17.4375 10.6875 C-16.98246094 9.80449219 -16.52742187 8.92148438 -16.05859375 8.01171875 C-15.53458984 7.01591797 -15.53458984 7.01591797 -15 6 C-10.88295306 6.72241198 -7.69512628 8.02353711 -4 10 C-3.71125 9.0925 -3.4225 8.185 -3.125 7.25 C-2.23468224 4.67797092 -1.28505587 2.38653234 0 0 Z " fill="#BCBCBC" transform="translate(244,1166)"/>
<path d="M0 0 C5.26170694 1.41167747 8.72171358 3.74850232 13 7 C9.535 14.425 9.535 14.425 6 22 C2.29499816 20.51799926 -0.67262 19.091496 -4 17 C-5.65 20.3 -7.3 23.6 -9 27 C-13.82655879 24.70942973 -17.94992375 22.54381672 -22 19 C-20.50829734 14.0276578 -18.39542583 9.58154261 -16 5 C-12.04179141 5.56545837 -9.3340947 6.80902348 -6 9 C-3.03 4.545 -3.03 4.545 0 0 Z " fill="#B9B9B9" transform="translate(1796,1054)"/>
<path d="M0 0 C5.26170694 1.41167747 8.72171358 3.74850232 13 7 C9.535 14.425 9.535 14.425 6 22 C2.29499816 20.51799926 -0.67262 19.091496 -4 17 C-5.65 20.3 -7.3 23.6 -9 27 C-13.82655879 24.70942973 -17.94992375 22.54381672 -22 19 C-20.50829734 14.0276578 -18.39542583 9.58154261 -16 5 C-12.04179141 5.56545837 -9.3340947 6.80902348 -6 9 C-3.03 4.545 -3.03 4.545 0 0 Z " fill="#B9B9B9" transform="translate(601,1054)"/>
<path d="M0 0 C5.26170694 1.41167747 8.72171358 3.74850232 13 7 C9.535 14.425 9.535 14.425 6 22 C2.29499816 20.51799926 -0.67262 19.091496 -4 17 C-5.65 20.3 -7.3 23.6 -9 27 C-10.79887229 26.09755571 -12.58890815 25.17748214 -14.375 24.25 C-15.37273437 23.73953125 -16.37046875 23.2290625 -17.3984375 22.703125 C-21.32934132 20.12974052 -21.32934132 20.12974052 -22 17 C-20.8828125 13.984375 -20.8828125 13.984375 -19.125 10.75 C-18.55007812 9.67234375 -17.97515625 8.5946875 -17.3828125 7.484375 C-16.92648438 6.66453125 -16.47015625 5.8446875 -16 5 C-12.04991941 5.68379546 -9.36542982 6.78843183 -6 9 C-3.03 4.545 -3.03 4.545 0 0 Z " fill="#B9B9B9" transform="translate(195,1054)"/>
<path d="M0 0 C4.42323682 0.58265272 7.5155864 2.26766211 11.3125 4.5625 C12.38113281 5.20316406 13.44976563 5.84382813 14.55078125 6.50390625 C15.35902344 6.99761719 16.16726563 7.49132813 17 8 C15.09425659 14.55389805 12.45696229 20.11382097 9 26 C3.72 23.36 -1.56 20.72 -7 18 C-6.09789442 13.48947211 -4.88930512 10.29874909 -2.9375 6.1875 C-2.11572266 4.44533203 -2.11572266 4.44533203 -1.27734375 2.66796875 C-0.85582031 1.78753906 -0.43429687 0.90710937 0 0 Z " fill="#C1C1C1" transform="translate(1353,1093)"/>
<path d="M0 0 C4.42323682 0.58265272 7.5155864 2.26766211 11.3125 4.5625 C12.38113281 5.20316406 13.44976563 5.84382813 14.55078125 6.50390625 C15.35902344 6.99761719 16.16726563 7.49132813 17 8 C15.09425659 14.55389805 12.45696229 20.11382097 9 26 C3.72 23.36 -1.56 20.72 -7 18 C-6.09789442 13.48947211 -4.88930512 10.29874909 -2.9375 6.1875 C-2.11572266 4.44533203 -2.11572266 4.44533203 -1.27734375 2.66796875 C-0.85582031 1.78753906 -0.43429687 0.90710937 0 0 Z " fill="#C1C1C1" transform="translate(1448,1077)"/>
<path d="M0 0 C4.42323682 0.58265272 7.5155864 2.26766211 11.3125 4.5625 C12.38113281 5.20316406 13.44976563 5.84382813 14.55078125 6.50390625 C15.35902344 6.99761719 16.16726563 7.49132813 17 8 C15.09425659 14.55389805 12.45696229 20.11382097 9 26 C3.72 23.36 -1.56 20.72 -7 18 C-6.09789442 13.48947211 -4.88930512 10.29874909 -2.9375 6.1875 C-2.11572266 4.44533203 -2.11572266 4.44533203 -1.27734375 2.66796875 C-0.85582031 1.78753906 -0.43429687 0.90710937 0 0 Z " fill="#C1C1C1" transform="translate(1177,1077)"/>
<path d="M0 0 C4.42323682 0.58265272 7.5155864 2.26766211 11.3125 4.5625 C12.38113281 5.20316406 13.44976563 5.84382813 14.55078125 6.50390625 C15.35902344 6.99761719 16.16726563 7.49132813 17 8 C15.09425659 14.55389805 12.45696229 20.11382097 9 26 C3.72 23.36 -1.56 20.72 -7 18 C-6.09789442 13.48947211 -4.88930512 10.29874909 -2.9375 6.1875 C-2.11572266 4.44533203 -2.11572266 4.44533203 -1.27734375 2.66796875 C-0.85582031 1.78753906 -0.43429687 0.90710937 0 0 Z " fill="#C1C1C1" transform="translate(1580,1066)"/>
<path d="M0 0 C0.33 1.98 0.66 3.96 1 6 C-1.31 6.33 -3.62 6.66 -6 7 C-3.36 7.99 -0.72 8.98 2 10 C1 14 1 14 -0.78515625 15.23046875 C-5.9351791 17.39471506 -10.42096402 18.59425193 -16 19 C-15.505 18.319375 -15.01 17.63875 -14.5 16.9375 C-12.73471333 14.03020005 -12.73471333 14.03020005 -13 10.5 C-13 6.53858526 -12.46036418 5.05424519 -10 2 C-6.37892833 -0.85874079 -4.41314266 -1.38698769 0 0 Z " fill="#848484" transform="translate(2016,1087)"/>
<path d="M0 0 C-3.09031145 4.96657197 -5.38648493 8.12882831 -11 10 C-13.29423545 9.93799364 -15.5869165 9.80398328 -17.875 9.625 C-19.69644531 9.48964844 -19.69644531 9.48964844 -21.5546875 9.3515625 C-24.43578564 9.05757289 -27.17774689 8.63312902 -30 8 C-29.625 5.0625 -29.625 5.0625 -29 2 C-24.81659749 -0.09170125 -19.52374548 0.90855238 -15.0625 1.6875 C-10.87551041 2.30933014 -7.75113223 1.15725205 -3.8828125 -0.40625 C-2 -1 -2 -1 0 0 Z " fill="#B8B8B8" transform="translate(1662,1063)"/>
<path d="M0 0 C0.66 0.33 1.32 0.66 2 1 C-4.27 7.27 -10.54 13.54 -17 20 C-17 17 -17 17 -14.734375 14.4765625 C-13.74693849 13.51840309 -12.75178056 12.56815218 -11.75 11.625 C-8.22744444 8.25961884 -5.04245922 4.80980513 -2 1 C-1.34 0.67 -0.68 0.34 0 0 Z " fill="#000000" transform="translate(356,1353)"/>
<path d="M0 0 C0 1.98 0 3.96 0 6 C-2.64 6 -5.28 6 -8 6 C-6.15596224 0.86303767 -5.73213298 0 0 0 Z " fill="#D4D4D4" transform="translate(2015,1086)"/>
<path d="M0 0 C2.2477975 2.05233685 3.0022242 3.00667261 4 6 C2.3767313 6.6708712 0.75132422 7.33657029 -0.875 8 C-2.23238281 8.556875 -2.23238281 8.556875 -3.6171875 9.125 C-6 10 -6 10 -8 10 C-8 9.01 -8 8.02 -8 7 C-4.7 6.67 -1.4 6.34 2 6 C1.34 5.01 0.68 4.02 0 3 C-1.98 3.99 -1.98 3.99 -4 5 C-2.68 3.35 -1.36 1.7 0 0 Z " fill="#000000" transform="translate(1679,1142)"/>
<path d="M0 0 C0.66 0.33 1.32 0.66 2 1 C-0.64 3.64 -3.28 6.28 -6 9 C-6 5.06368636 -4.57142871 3.87394974 -2 1 C-1.34 0.67 -0.68 0.34 0 0 Z " fill="#616161" transform="translate(356,1353)"/>
<path d="M0 0 C-1.485 2.475 -1.485 2.475 -3 5 C-3.66 4.34 -4.32 3.68 -5 3 C-8.08347826 2.83318891 -8.08347826 2.83318891 -11 3 C-11 2.67 -11 2.34 -11 2 C-9.54494642 1.47007308 -8.08581873 0.9513211 -6.625 0.4375 C-5.81289062 0.14746094 -5.00078125 -0.14257812 -4.1640625 -0.44140625 C-2 -1 -2 -1 0 0 Z " fill="#0C0C0C" transform="translate(1662,1063)"/>
</svg>
